<?xml version="1.0" standalone="no"?>
<!DOCTYPE svg PUBLIC "-//W3C//DTD SVG 20010904//EN"
 "http://www.w3.org/TR/2001/REC-SVG-20010904/DTD/svg10.dtd">
<svg version="1.0" xmlns="http://www.w3.org/2000/svg"
 width="595.000000pt" height="595.000000pt" viewBox="0 0 595.000000 595.000000"
 preserveAspectRatio="xMidYMid meet">
<metadata>
Created by potrace 1.11, written by Peter Selinger 2001-2013
</metadata>
<g transform="translate(0.000000,595.000000) scale(0.100000,-0.100000)"
fill="#000000" stroke="none">
<path d="M2031 5934 c-11 -8 -21 -13 -21 -9 0 11 -55 -23 -79 -49 -24 -26 -24
-27 -7 -44 14 -12 17 -13 11 -2 -5 8 -4 11 0 7 26 -23 11 -47 -40 -65 -29 -10
-29 -11 -5 -11 141 -5 243 -22 345 -59 144 -52 244 -109 230 -132 -4 -6 1 -18
11 -25 11 -8 16 -15 11 -15 -4 0 2 -18 13 -40 27 -53 25 -72 -4 -36 -14 16
-22 34 -20 41 8 21 -92 120 -153 153 -68 36 -143 63 -155 56 -4 -3 -8 0 -8 6
0 8 -9 10 -24 6 -14 -3 -27 -2 -30 3 -16 25 -283 -3 -294 -31 -2 -4 -11 -8
-20 -8 -28 0 -84 -39 -79 -55 6 -14 -19 -29 -34 -19 -5 3 -9 1 -9 -4 0 -5 -16
-17 -36 -27 -24 -11 -34 -21 -30 -32 4 -10 2 -13 -8 -10 -8 3 -29 -6 -48 -19
l-33 -25 40 7 c22 3 63 23 92 45 29 22 56 38 60 37 4 -2 10 2 12 7 6 15 41 38
48 31 4 -3 1 -6 -5 -6 -7 0 -12 -5 -12 -11 0 -5 5 -7 10 -4 6 3 10 4 10 1 0
-3 -27 -21 -61 -41 -66 -38 -199 -140 -213 -163 -4 -8 -17 -21 -27 -30 -42
-36 -8 -88 41 -62 33 18 24 33 -16 25 -49 -9 -41 12 12 34 22 9 54 26 71 39
59 42 57 17 -4 -47 -49 -51 -51 -59 -21 -70 l22 -8 -23 -6 c-13 -3 -20 -10
-17 -16 3 -5 -7 -20 -23 -33 -15 -13 -36 -36 -46 -53 l-17 -30 21 25 c18 22
21 23 21 6 0 -19 1 -19 23 1 25 24 74 42 63 24 -4 -6 -13 -11 -20 -11 -17 0
-42 -29 -50 -57 -7 -21 -5 -22 26 -18 33 5 33 5 6 -6 -31 -12 -39 -34 -10 -25
13 4 18 1 18 -14 0 -11 -6 -20 -12 -20 -7 0 -34 -20 -60 -45 -49 -47 -60 -54
-51 -32 3 8 1 20 -3 27 -5 9 -11 -4 -15 -36 -4 -27 -11 -54 -16 -60 -5 -5 -5
-23 0 -40 l8 -29 13 30 c7 17 14 35 14 40 2 20 44 57 51 45 5 -8 13 -6 26 6
10 9 19 12 19 6 0 -6 -4 -14 -10 -17 -19 -12 -10 -27 12 -22 20 6 19 4 -6 -19
-43 -40 -22 -40 32 0 27 19 52 33 55 30 3 -3 39 26 79 65 52 51 68 71 54 71
-15 0 -11 6 17 28 22 16 36 36 37 49 0 17 8 24 35 29 19 3 35 11 35 16 0 6 -9
8 -20 5 -11 -3 -22 -2 -25 3 -3 4 5 10 18 14 32 8 49 7 43 -3 -3 -5 2 -12 12
-16 16 -6 16 -7 0 -16 -10 -6 -18 -16 -18 -24 0 -7 -12 -15 -27 -17 -14 -2
-28 -8 -30 -14 -2 -7 6 -10 24 -7 l28 4 -29 -17 c-25 -14 -27 -18 -13 -25 21
-12 75 30 55 43 -9 5 -7 8 7 8 25 1 59 26 51 38 -3 6 6 13 20 16 19 5 24 11
19 25 -3 11 -1 22 5 26 6 3 8 11 4 16 -3 6 4 7 19 4 30 -8 72 22 57 40 -7 9
-2 12 17 13 53 2 64 5 59 19 -4 11 -1 11 14 3 24 -13 44 -4 36 16 -5 13 -2 12
16 -1 13 -8 30 -15 40 -15 10 0 18 -4 18 -9 0 -10 41 -23 49 -16 2 3 -4 15
-15 26 -19 22 -19 22 3 10 12 -6 25 -16 28 -21 4 -6 15 -8 26 -5 11 4 19 2 19
-5 0 -6 4 -9 9 -5 5 3 13 0 17 -6 5 -8 8 -8 14 1 5 8 16 4 37 -14 16 -14 39
-24 51 -23 17 1 20 6 16 32 -2 16 -1 23 2 15 4 -8 15 -26 25 -39 l19 -24 1 29
1 29 11 -27 c13 -33 31 -38 21 -5 -5 17 -1 15 21 -11 33 -40 56 -30 36 15 -15
33 -4 23 34 -32 24 -36 26 -37 21 -12 -9 39 -14 74 -9 60 3 -7 8 -13 12 -13 4
0 13 -11 19 -25 14 -31 32 -33 24 -2 -5 19 -3 20 10 9 13 -10 17 -10 21 0 4
11 6 11 6 0 1 -10 6 -10 21 -2 15 8 24 6 40 -10 l20 -20 1 38 c0 35 1 36 11
12 11 -25 11 -25 15 -2 3 12 11 22 19 22 8 0 14 8 15 18 0 10 5 4 11 -13 6
-16 15 -33 21 -36 5 -4 6 -12 3 -18 -4 -6 0 -11 8 -11 19 0 21 21 4 38 -10 10
-10 15 2 22 9 6 19 5 24 0 15 -15 29 -12 22 5 -3 8 -3 15 0 15 3 0 10 -13 15
-30 13 -37 24 -38 44 -2 15 26 15 26 9 2 -6 -22 -5 -23 10 -11 13 11 16 11 16
0 1 -8 7 -3 15 11 8 14 14 19 15 12 0 -8 5 -10 12 -6 8 5 9 2 5 -10 -6 -14 -3
-16 14 -11 14 5 19 3 15 -3 -4 -6 2 -8 14 -5 11 3 20 10 20 15 0 6 7 5 15 -2
13 -11 21 -9 45 8 33 25 44 28 34 10 -5 -10 -4 -10 6 -1 13 12 43 6 35 -7 -3
-4 2 -13 10 -20 13 -10 17 -7 30 24 17 40 26 48 17 14 -3 -14 -2 -19 6 -14 7
4 12 14 12 22 0 8 4 13 10 9 5 -3 6 -13 3 -22 -5 -11 -3 -14 6 -8 7 4 11 18 8
31 -3 18 -1 22 8 14 9 -8 14 -6 18 4 3 8 16 20 29 27 22 11 22 11 9 -7 -7 -10
1 -3 18 16 17 19 36 35 41 35 5 0 16 9 25 20 l16 20 -5 -20 c-3 -11 -1 -27 4
-35 9 -13 14 -10 35 15 14 17 30 29 36 27 6 -1 8 12 4 35 -5 37 -5 37 6 9 9
-22 14 -25 21 -15 7 10 8 8 3 -7 -4 -18 0 -23 22 -29 15 -3 30 -10 33 -15 3
-4 19 -10 36 -14 25 -6 33 -3 42 16 l12 23 -3 -25 c-5 -38 37 -36 95 3 51 34
57 44 33 53 -8 3 -26 30 -39 60 -27 58 -42 71 -32 27 l6 -28 -20 24 c-11 13
-18 31 -15 40 2 9 0 23 -5 31 -8 13 -11 12 -22 -3 -13 -17 -15 -16 -28 18
l-14 36 -11 -38 -12 -38 -7 65 c-8 63 -29 125 -47 136 -5 3 -5 -5 -1 -18 5
-13 6 -34 3 -47 -6 -22 -8 -20 -20 20 -16 52 -60 140 -61 120 0 -8 9 -45 21
-83 11 -39 18 -72 16 -74 -3 -3 -8 8 -11 23 -13 51 -49 117 -85 153 -35 36
-34 30 6 -29 13 -19 23 -41 23 -50 -1 -11 -5 -8 -15 9 -13 23 -14 23 -15 4 0
-11 4 -24 9 -30 9 -10 28 -111 30 -164 1 -26 -1 -31 -9 -20 -5 8 -10 33 -11
55 0 22 -5 49 -10 60 -7 14 -8 2 -5 -40 l5 -60 -19 43 c-11 25 -17 54 -14 67
4 15 0 24 -11 29 -9 3 -15 11 -14 18 3 24 -1 38 -10 38 -5 0 -3 -26 5 -57 16
-67 18 -127 5 -118 -5 3 -12 -5 -14 -17 -4 -20 -4 -20 -6 4 -1 27 -20 50 -22
26 0 -14 -27 72 -33 107 -11 64 -29 143 -39 163 -12 26 -29 30 -20 5 5 -15 3
-14 -10 2 -13 16 -16 17 -17 4 0 -8 4 -19 8 -25 5 -5 21 -51 38 -101 16 -51
32 -93 36 -93 5 0 8 -12 8 -27 0 -16 9 -41 20 -58 11 -16 20 -39 19 -50 0 -14
-5 -9 -15 15 l-14 35 5 -32 c3 -18 7 -48 10 -65 5 -31 5 -31 -10 7 -19 47 -35
105 -29 105 3 0 -2 13 -11 30 -8 16 -15 40 -15 54 0 14 -6 40 -14 58 -8 18
-21 59 -31 91 -14 51 -36 79 -51 65 -2 -3 8 -26 22 -52 15 -27 28 -55 29 -64
1 -10 7 -30 14 -47 7 -16 14 -48 16 -70 1 -22 8 -53 14 -68 19 -49 10 -64 -11
-19 -26 58 -33 47 -13 -22 9 -30 15 -75 13 -98 l-3 -43 -12 45 -11 45 -2 -40
c-2 -36 -3 -34 -14 25 -6 36 -8 67 -3 68 14 7 7 21 -8 16 -10 -4 -15 -22 -16
-53 -1 -30 -3 -36 -6 -16 -7 60 -36 160 -50 168 -7 4 -13 13 -13 18 0 6 5 7
10 4 15 -9 11 6 -11 45 -18 31 -18 25 -1 -20 3 -8 -12 8 -32 35 -45 58 -127
145 -138 145 -4 0 12 -19 35 -43 66 -66 108 -133 133 -215 24 -78 26 -106 4
-52 -7 16 -16 27 -21 24 -5 -3 -9 6 -9 20 0 14 -4 27 -9 30 -5 3 -12 18 -15
32 -7 26 -53 96 -68 102 -5 2 -8 9 -8 17 0 16 -84 85 -104 85 -9 0 7 -22 39
-55 30 -30 55 -61 55 -68 0 -6 21 -52 45 -102 25 -49 41 -91 36 -93 -4 -1 -7
-23 -5 -48 3 -37 1 -43 -9 -32 -19 19 -28 48 -16 48 30 0 -38 162 -99 236 -44
53 -46 38 -3 -22 49 -68 99 -193 82 -203 -6 -4 -9 -16 -6 -27 3 -10 -2 -4 -12
14 -9 18 -22 31 -29 28 -6 -2 -11 3 -10 12 0 10 -5 16 -13 14 -8 -2 -18 3 -23
10 -8 12 -5 -23 8 -92 l5 -25 -21 25 c-11 14 -20 28 -20 33 0 4 -5 7 -11 7 -7
0 -9 -19 -6 -55 4 -46 3 -54 -8 -45 -11 9 -14 5 -18 -17 -3 -20 -5 -15 -6 17
-2 41 -30 115 -31 81 0 -8 -3 -11 -6 -8 -4 4 -2 12 4 19 14 17 -19 148 -53
212 -31 58 -31 64 -2 40 l22 -19 -19 22 c-10 13 -22 20 -26 18 -4 -3 -13 2
-20 10 -10 12 -10 15 1 15 8 0 2 8 -13 18 -16 9 -28 20 -28 24 0 5 -43 8 -96
8 -53 0 -94 -3 -92 -7 27 -57 44 -83 53 -83 6 0 16 -13 22 -30 8 -21 8 -30 1
-30 -6 0 -4 -8 4 -17 8 -10 15 -25 15 -33 0 -16 33 -73 39 -67 5 5 -27 107
-34 107 -4 0 -8 24 -9 53 l-2 52 18 -45 c10 -25 16 -52 14 -60 -4 -13 -4 -13
6 0 8 12 10 8 5 -17 -5 -25 -3 -34 10 -39 10 -4 16 -18 16 -36 0 -21 4 -29 13
-25 13 5 32 -34 42 -84 2 -12 11 -32 20 -45 8 -13 11 -25 5 -29 -5 -3 -18 12
-29 33 -22 44 -56 79 -45 46 6 -16 5 -17 -7 -6 -18 16 -29 15 -29 -4 0 -8 5
-12 10 -9 6 3 13 -1 16 -9 3 -9 12 -16 20 -16 10 0 14 -14 14 -49 0 -28 4 -52
9 -55 5 -3 7 -16 3 -28 -4 -18 -8 -14 -18 22 -7 24 -11 57 -8 74 4 25 3 27 -5
11 -8 -17 -10 -17 -10 -3 -1 9 -6 20 -13 24 -8 5 -9 2 -5 -10 4 -10 10 -35 13
-57 8 -50 -9 -51 -29 -1 -9 20 -16 30 -17 22 0 -10 -7 -7 -20 10 -12 15 -18
18 -14 8 8 -23 -12 -24 -20 -2 -4 9 -9 14 -12 11 -3 -3 0 -16 7 -29 7 -12 14
-43 16 -68 3 -43 2 -44 -11 -20 -8 14 -18 25 -23 24 -4 -1 -16 12 -26 29 -10
16 -21 26 -24 23 -8 -7 -43 23 -43 37 0 6 10 2 22 -9 l22 -19 -20 27 c-23 34
-33 35 -30 5 3 -26 22 -64 44 -89 8 -10 10 -18 4 -18 -6 0 -5 -12 5 -31 8 -16
12 -33 9 -36 -3 -3 -10 5 -15 18 -6 13 -19 35 -30 49 l-21 25 11 -35 c18 -59
20 -77 7 -49 -7 14 -19 33 -26 42 -8 9 -11 20 -8 25 3 6 -2 16 -12 23 -15 12
-16 12 -5 -1 7 -10 8 -21 3 -30 -6 -10 -11 -2 -19 27 -6 22 -18 46 -26 53 -17
14 -21 35 -5 25 21 -13 9 34 -15 56 -13 13 -25 29 -25 35 0 13 -89 99 -110
106 -8 3 -12 9 -8 13 4 4 24 -5 44 -21 60 -48 74 -57 80 -52 2 3 -41 43 -97
89 -99 80 -104 83 -162 87 -42 3 -55 7 -44 13 26 15 156 -11 232 -46 45 -21
96 -57 143 -100 40 -37 69 -60 66 -51 -12 31 3 16 40 -39 39 -59 59 -75 29
-24 -18 31 -94 122 -157 189 -19 19 -58 47 -87 62 -38 20 -47 28 -31 28 12 0
22 -4 22 -9 0 -5 8 -12 18 -15 9 -3 1 8 -18 24 -40 35 -27 41 16 8 16 -13 30
-22 31 -20 5 5 35 -14 34 -22 -1 -3 25 -28 56 -55 32 -26 64 -55 72 -64 7 -10
18 -17 23 -17 6 0 -10 21 -35 47 -57 58 -52 72 5 17 25 -24 38 -32 34 -20 -5
16 -4 17 9 6 8 -7 15 -18 15 -25 0 -7 7 -15 15 -19 18 -7 20 -27 3 -22 -7 1
-10 1 -5 -1 4 -3 7 -12 7 -21 0 -9 10 -28 21 -42 l20 -25 -7 25 c-3 14 -10 30
-15 36 -4 5 -6 19 -3 31 3 11 -1 26 -9 34 -7 8 -12 20 -9 28 3 8 0 11 -6 7 -6
-4 -8 2 -5 15 3 11 1 30 -4 42 -6 12 -18 48 -28 79 l-18 58 -302 -1 c-251 0
-306 -3 -324 -15z m104 -3 c-3 -5 -30 -15 -61 -22 -30 -7 -57 -16 -60 -21 -3
-4 -12 -8 -21 -8 -9 0 -25 -7 -35 -17 -10 -9 -21 -14 -24 -11 -3 3 10 16 28
29 18 13 34 27 36 31 2 4 9 5 15 3 7 -3 35 2 62 9 62 18 68 18 60 7z m250 -9
c-3 -3 -11 0 -18 7 -9 10 -8 11 6 5 10 -3 15 -9 12 -12z m-131 -27 c10 -4 32
-9 50 -10 83 -4 91 -5 78 -14 -7 -4 -31 -5 -53 -1 -24 5 -39 3 -39 -3 0 -6 -5
-5 -13 2 -10 7 -31 8 -73 1 -32 -6 -60 -10 -62 -10 -2 0 -1 -4 2 -9 6 -10 -96
-24 -117 -15 -8 3 -17 -2 -20 -10 -4 -9 -12 -16 -19 -16 -10 0 -10 2 1 9 8 5
11 16 6 30 -4 12 -2 21 4 21 6 0 11 -4 11 -10 0 -5 5 -10 11 -10 5 0 8 4 5 9
-12 18 101 49 169 46 22 -1 48 -6 59 -10z m-274 -55 c0 -5 -5 -10 -11 -10 -5
0 -7 5 -4 10 3 6 8 10 11 10 2 0 4 -4 4 -10z m856 -38 c-9 -8 -26 10 -26 26 1
15 2 15 15 -2 8 -11 13 -21 11 -24z m34 -38 c0 -2 -9 0 -20 6 -11 6 -20 13
-20 16 0 2 9 0 20 -6 11 -6 20 -13 20 -16z m20 -61 c0 -6 7 -19 16 -27 8 -9
18 -33 21 -53 4 -21 15 -44 25 -53 22 -17 33 -107 18 -143 -8 -20 -9 -20 -11
8 -1 17 -1 43 0 59 3 38 -7 78 -19 71 -5 -3 -5 -18 1 -37 5 -17 7 -34 4 -36
-3 -3 -8 9 -11 26 -4 18 -10 32 -15 32 -4 0 -15 26 -24 58 -9 31 -23 64 -30
72 -7 8 -16 26 -19 40 -6 23 -6 23 9 -3 18 -32 33 -30 16 1 -6 12 -11 24 -11
28 0 13 29 -30 30 -43z m800 21 c0 -8 -4 -12 -10 -9 -5 3 -10 10 -10 16 0 5 5
9 10 9 6 0 10 -7 10 -16z m-773 -26 c-3 -7 -5 -2 -5 12 0 14 2 19 5 13 2 -7 2
-19 0 -25z m-887 -3 c-7 -8 -22 -15 -34 -15 -11 0 -49 -9 -83 -19 -34 -10 -64
-16 -68 -13 -3 3 -14 -4 -25 -16 -18 -19 -22 -20 -47 -7 -21 11 -29 12 -36 2
-6 -9 -8 -9 -5 2 2 7 21 19 42 26 22 8 42 18 45 23 3 5 17 10 31 11 27 1 182
17 189 20 2 0 -2 -6 -9 -14z m90 -15 c-20 -13 -33 -13 -25 0 3 6 14 10 23 10
15 0 15 -2 2 -10z m-50 -14 c0 -9 -18 -15 -52 -19 -97 -10 -284 -96 -295 -135
-8 -28 -91 -92 -110 -85 -18 7 -25 0 97 98 34 28 76 62 93 78 17 15 37 25 43
23 7 -3 38 4 68 15 31 10 76 19 101 19 25 0 45 5 45 10 0 6 2 10 5 10 3 0 5
-6 5 -14z m889 -36 c0 -10 -3 -8 -9 5 -12 27 -12 43 0 25 5 -8 9 -22 9 -30z
m30 -3 c0 -21 -1 -21 -9 -2 -12 28 -12 37 0 30 6 -3 10 -16 9 -28z m-876 6
c-7 -2 -19 -2 -25 0 -7 3 -2 5 12 5 14 0 19 -2 13 -5z m140 -30 c43 -14 91
-36 107 -49 23 -20 29 -22 34 -8 3 8 2 13 -3 10 -4 -3 -17 4 -27 15 -16 18
-16 19 -1 13 9 -3 17 -10 17 -15 0 -4 6 -6 14 -3 8 3 26 -12 46 -38 l32 -43
-31 33 c-34 36 -47 41 -32 13 6 -10 9 -20 8 -22 -1 -2 0 -3 2 -1 7 4 51 -40
51 -51 0 -6 -11 0 -25 13 -33 31 -32 18 5 -35 32 -47 38 -64 16 -46 -10 9 -16
9 -21 1 -5 -8 -13 -3 -23 12 -46 65 -74 80 -41 22 11 -20 18 -41 17 -46 -2 -6
-16 12 -31 40 -27 49 -36 59 -107 123 -28 24 -30 28 -10 19 14 -7 35 -22 48
-33 12 -11 22 -15 22 -9 0 22 -131 102 -167 102 -7 0 -13 5 -13 11 0 7 7 8 18
4 9 -4 52 -18 95 -32z m1354 0 c-3 -10 -5 -4 -5 12 0 17 2 24 5 18 2 -7 2 -21
0 -30z m-1640 11 c-3 -3 -12 -4 -19 -1 -8 3 -5 6 6 6 11 1 17 -2 13 -5z m1000
-26 c-3 -8 -6 -5 -6 6 -1 11 2 17 5 13 3 -3 4 -12 1 -19z m680 -50 c-2 -13 -4
-5 -4 17 -1 22 1 32 4 23 2 -10 2 -28 0 -40z m-792 32 c3 -5 1 -10 -4 -10 -6
0 -11 5 -11 10 0 6 2 10 4 10 3 0 8 -4 11 -10z m844 -50 c0 -8 -6 0 -14 19 -8
18 -15 36 -15 40 1 13 29 -45 29 -59z m-1494 32 c-3 -3 -11 0 -18 7 -9 10 -8
11 6 5 10 -3 15 -9 12 -12z m792 -4 c-3 -8 -6 -5 -6 6 -1 11 2 17 5 13 3 -3 4
-12 1 -19z m280 -40 c-2 -13 -4 -5 -4 17 -1 22 1 32 4 23 2 -10 2 -28 0 -40z
m-1487 37 c0 -2 -10 -9 -22 -15 -22 -11 -22 -10 -4 4 21 17 26 19 26 11z m475
-45 c10 -11 13 -20 7 -20 -6 0 -16 9 -22 20 -6 11 -9 20 -7 20 2 0 12 -9 22
-20z m749 -41 c-3 -5 0 -19 6 -31 10 -21 10 -21 -3 -6 -8 10 -16 16 -18 14 -4
-4 -3 44 1 74 1 8 6 2 10 -14 5 -16 7 -33 4 -37z m-704 21 c0 -5 -2 -10 -4
-10 -3 0 -8 5 -11 10 -3 6 -1 10 4 10 6 0 11 -4 11 -10z m1157 -12 c-3 -8 -6
-5 -6 6 -1 11 2 17 5 13 3 -3 4 -12 1 -19z m-1196 -15 c13 -16 12 -17 -3 -4
-10 7 -18 15 -18 17 0 8 8 3 21 -13z m1325 -19 c-4 -9 -9 -15 -11 -12 -3 3 -3
13 1 22 4 9 9 15 11 12 3 -3 3 -13 -1 -22z m64 -20 c0 -8 -5 -12 -10 -9 -6 4
-8 11 -5 16 9 14 15 11 15 -7z m-960 -4 c0 -5 -2 -10 -4 -10 -3 0 -8 5 -11 10
-3 6 -1 10 4 10 6 0 11 -4 11 -10z m-555 -20 c10 -11 16 -20 13 -20 -3 0 -13
9 -23 20 -10 11 -16 20 -13 20 3 0 13 -9 23 -20z m629 5 c3 -8 1 -15 -3 -15
-5 0 -11 7 -15 15 -3 8 -1 15 3 15 5 0 11 -7 15 -15z m-479 -5 c3 -6 -1 -7 -9
-4 -18 7 -21 14 -7 14 6 0 13 -4 16 -10z m832 -42 c-3 -8 -6 -5 -6 6 -1 11 2
17 5 13 3 -3 4 -12 1 -19z m-789 -23 c-3 -3 -9 2 -12 12 -6 14 -5 15 5 6 7 -7
10 -15 7 -18z m32 4 c0 -6 -4 -7 -10 -4 -5 3 -10 11 -10 16 0 6 5 7 10 4 6 -3
10 -11 10 -16z m207 -1 c-3 -8 -6 -5 -6 6 -1 11 2 17 5 13 3 -3 4 -12 1 -19z
m378 12 c3 -5 1 -10 -4 -10 -6 0 -11 5 -11 10 0 6 2 10 4 10 3 0 8 -4 11 -10z
m115 -42 c0 -12 -6 -9 -26 13 -19 22 -19 22 4 8 12 -8 22 -17 22 -21z m-330
-8 c0 -5 -5 -10 -11 -10 -5 0 -7 5 -4 10 3 6 8 10 11 10 2 0 4 -4 4 -10z
m-836 -41 c-3 -6 -2 -14 5 -18 9 -6 -45 -7 -81 -2 -22 3 -4 17 24 19 18 2 34
5 37 7 9 10 22 5 15 -6z"/>
<path d="M2153 5883 c9 -2 23 -2 30 0 6 3 -1 5 -18 5 -16 0 -22 -2 -12 -5z"/>
<path d="M2082 5873 c-12 -2 -20 -8 -18 -12 7 -10 66 -1 66 10 0 9 -8 10 -48
2z"/>
<path d="M1785 5640 c-3 -5 1 -10 9 -10 9 0 16 5 16 10 0 6 -4 10 -9 10 -6 0
-13 -4 -16 -10z"/>
<path d="M2370 5502 c12 -18 25 -31 28 -27 3 3 -7 18 -23 33 l-28 27 23 -33z"/>
<path d="M2430 5422 c6 -13 14 -21 18 -18 3 4 -2 14 -12 24 -18 16 -18 16 -6
-6z"/>
<path d="M2932 5908 c19 -23 43 -42 54 -44 15 -2 13 3 -11 22 -16 13 -26 24
-21 24 5 0 2 8 -5 17 -8 10 5 3 28 -15 42 -33 73 -66 105 -112 9 -14 17 -20
17 -13 1 7 -13 28 -29 47 -17 19 -33 43 -35 54 -2 11 -9 29 -17 41 -16 26 -40
28 -31 4 6 -17 5 -17 -14 0 -11 9 -32 17 -48 17 l-28 0 35 -42z m94 -15 c-7
-7 -26 7 -26 19 0 6 6 6 15 -2 9 -7 13 -15 11 -17z"/>
<path d="M3190 5940 c0 -5 5 -10 11 -10 5 0 7 5 4 10 -3 6 -8 10 -11 10 -2 0
-4 -4 -4 -10z"/>
<path d="M3042 5926 c10 -7 16 -16 13 -19 -3 -4 -2 -5 2 -2 3 3 18 -2 32 -11
21 -12 20 -10 -7 15 -18 17 -38 31 -45 31 -7 -1 -5 -6 5 -14z"/>
<path d="M3640 5924 c0 -13 18 -39 24 -34 2 3 -2 14 -10 24 -8 11 -14 16 -14
10z"/>
<path d="M3120 5862 c0 -5 7 -15 15 -22 8 -7 15 -8 15 -2 0 5 -7 15 -15 22 -8
7 -15 8 -15 2z"/>
<path d="M3502 5823 c18 -90 31 -133 39 -133 5 0 5 10 0 23 -5 13 -12 49 -16
80 -4 31 -13 61 -20 67 -10 8 -10 0 -3 -37z"/>
<path d="M3012 5823 c13 -16 34 -44 46 -63 22 -38 82 -99 82 -85 0 5 7 0 15
-11 14 -18 14 -17 3 9 -6 15 -14 23 -18 17 -7 -12 -41 21 -60 60 -20 39 -70
100 -83 100 -6 0 1 -12 15 -27z"/>
<path d="M2330 5815 c0 -10 54 -54 66 -55 6 0 21 -12 35 -26 32 -35 85 -72 75
-53 -4 7 -1 6 7 -3 8 -10 17 -15 20 -11 4 3 10 -3 14 -13 4 -10 25 -37 47 -59
22 -22 31 -30 21 -18 -10 13 -19 35 -21 49 -4 43 -119 148 -171 159 -12 2 -35
11 -52 19 -32 17 -41 19 -41 11z"/>
<path d="M2969 5803 c12 -24 31 -39 31 -25 0 5 -10 17 -21 28 -22 19 -22 19
-10 -3z"/>
<path d="M2570 5766 c0 -2 8 -10 18 -17 15 -13 16 -12 3 4 -13 16 -21 21 -21
13z"/>
<path d="M3010 5732 c6 -13 14 -21 18 -18 3 4 -2 14 -12 24 -18 16 -18 16 -6
-6z"/>
<path d="M3350 5745 c1 -6 7 -21 16 -35 l15 -25 -7 25 c-7 26 -24 52 -24 35z"/>
<path d="M2774 5688 c10 -47 25 -78 36 -78 14 0 4 33 -22 74 l-20 31 6 -27z"/>
<path d="M3030 5690 c0 -5 5 -10 11 -10 5 0 7 5 4 10 -3 6 -8 10 -11 10 -2 0
-4 -4 -4 -10z"/>
<path d="M2640 5686 c0 -2 8 -10 18 -17 15 -13 16 -12 3 4 -13 16 -21 21 -21
13z"/>
<path d="M2500 5646 c0 -2 7 -9 15 -16 13 -11 14 -10 9 4 -5 14 -24 23 -24 12z"/>
<path d="M2840 5637 c0 -8 6 -20 14 -26 12 -10 13 -8 9 9 -7 25 -23 37 -23 17z"/>
<path d="M3921 5645 c0 -18 28 -61 29 -44 0 8 -7 24 -15 35 -8 10 -14 15 -14
9z"/>
<path d="M2700 5614 c0 -5 7 -18 15 -28 8 -11 15 -16 15 -10 0 5 -7 18 -15 28
-8 11 -15 16 -15 10z"/>
<path d="M2440 5580 c0 -5 5 -10 11 -10 5 0 7 5 4 10 -3 6 -8 10 -11 10 -2 0
-4 -4 -4 -10z"/>
<path d="M2750 5585 c0 -5 5 -17 10 -25 5 -8 10 -10 10 -5 0 6 -5 17 -10 25
-5 8 -10 11 -10 5z"/>
<path d="M3960 5574 c0 -5 7 -18 15 -28 8 -11 15 -16 15 -10 0 5 -7 18 -15 28
-8 11 -15 16 -15 10z"/>
<path d="M4029 5451 c15 -27 28 -34 34 -18 7 18 -3 31 -26 35 -15 3 -17 0 -8
-17z"/>
<path d="M1465 5440 c-3 -5 -2 -10 4 -10 5 0 13 5 16 10 3 6 2 10 -4 10 -5 0
-13 -4 -16 -10z"/>
<path d="M4080 5440 c0 -5 5 -10 11 -10 5 0 7 5 4 10 -3 6 -8 10 -11 10 -2 0
-4 -4 -4 -10z"/>
<path d="M3995 5410 c-3 -5 1 -10 9 -10 8 0 18 5 21 10 3 6 -1 10 -9 10 -8 0
-18 -4 -21 -10z"/>
<path d="M3585 5380 c-3 -5 1 -10 9 -10 8 0 18 5 21 10 3 6 -1 10 -9 10 -8 0
-18 -4 -21 -10z"/>
<path d="M3944 5369 c-16 -17 -13 -24 9 -20 5 1 6 -3 3 -8 -9 -14 4 -41 20
-41 7 0 11 -6 8 -14 -3 -8 3 -16 16 -19 18 -5 20 -9 10 -26 -9 -18 -7 -25 17
-46 15 -13 31 -25 36 -25 4 0 7 -5 7 -11 0 -5 -4 -7 -10 -4 -5 3 -10 2 -10 -4
0 -5 8 -15 18 -21 12 -8 13 -13 4 -16 -17 -8 -5 -24 19 -24 14 0 19 -6 17 -18
-1 -10 14 -38 35 -62 20 -24 37 -47 37 -52 0 -11 -14 -10 -27 3 -6 6 -13 7
-17 1 -3 -5 8 -22 24 -37 17 -16 30 -23 30 -16 0 7 5 9 13 5 6 -4 4 2 -7 14
-18 21 -18 21 10 19 23 -2 34 -13 62 -62 18 -33 40 -67 49 -75 25 -24 -43 103
-71 133 -27 29 -46 60 -46 74 1 4 8 -4 16 -19 8 -16 19 -28 25 -28 16 0 -10
42 -45 71 -17 15 -35 24 -40 21 -5 -3 -6 0 -2 6 3 6 -2 13 -13 17 -11 3 -22
12 -25 20 -7 19 8 19 24 0 15 -18 34 -20 24 -2 -5 8 -2 7 9 -2 10 -8 15 -16
12 -19 -5 -6 25 -31 38 -32 5 0 -1 15 -13 33 -17 26 -14 23 19 -12 23 -24 41
-37 41 -29 0 8 -9 23 -20 33 -28 25 -25 43 3 19 l22 -19 -22 26 c-13 14 -23
30 -23 36 0 6 -19 20 -42 31 -24 12 -35 21 -25 22 28 0 9 20 -21 21 -15 0 -21
3 -14 6 19 8 6 20 -54 48 -61 29 -69 45 -11 20 43 -18 47 -18 47 -5 0 6 -7 10
-15 10 -8 0 -14 5 -12 11 1 6 -8 15 -21 20 -15 6 -21 5 -17 -1 9 -15 -12 -12
-22 3 -4 6 -8 21 -8 31 0 29 -49 39 -71 15z m140 -137 c3 -5 -8 -6 -25 -4 -16
2 -29 6 -29 8 0 8 49 4 54 -4z m96 -226 c0 -8 7 -19 15 -26 8 -7 15 -18 15
-24 -1 -17 -50 43 -50 60 0 8 5 12 10 9 6 -3 10 -12 10 -19z"/>
<path d="M4228 5303 c7 -3 16 -2 19 1 4 3 -2 6 -13 5 -11 0 -14 -3 -6 -6z"/>
<path d="M3020 5260 c0 -5 5 -10 10 -10 6 0 10 5 10 10 0 6 -4 10 -10 10 -5 0
-10 -4 -10 -10z"/>
<path d="M1987 5223 c-14 -13 -6 -25 8 -13 11 9 15 9 15 1 0 -7 5 -9 11 -5 8
4 7 9 -2 15 -17 11 -24 11 -32 2z"/>
<path d="M4550 5123 c0 -18 40 -72 62 -84 l23 -13 -24 -6 c-25 -6 -25 -6 10
-28 23 -16 27 -21 12 -17 -19 5 -22 3 -16 -12 3 -10 15 -29 25 -43 15 -19 16
-26 6 -30 -16 -6 -16 -28 1 -60 l14 -25 -27 24 c-14 14 -26 31 -26 38 0 8 -7
16 -15 19 -8 4 -15 14 -15 24 0 10 -7 23 -15 30 -8 7 -15 17 -15 23 0 6 6 2
14 -9 8 -10 17 -16 20 -13 3 3 -10 21 -30 40 -34 33 -35 33 -31 9 7 -35 43
-99 77 -135 28 -29 29 -31 13 -63 -12 -24 -20 -31 -34 -27 -11 4 -19 4 -19 0
0 -13 46 -53 64 -57 11 -1 21 -9 24 -17 3 -8 0 -11 -7 -7 -19 12 -12 -7 14
-39 13 -16 24 -25 25 -18 0 7 6 10 14 7 20 -8 26 43 10 85 l-15 36 25 -29 25
-30 -3 37 c-2 20 1 37 5 37 11 0 0 30 -19 52 -10 12 -13 28 -8 48 6 32 -16 90
-34 90 -6 0 -10 5 -10 12 0 6 -7 20 -17 30 -15 17 -15 18 0 18 28 0 20 15 -30
57 -57 47 -73 57 -73 46z"/>
<path d="M1404 5084 c-8 -20 -13 -39 -10 -42 3 -3 6 -3 6 0 0 3 7 22 15 42 8
20 13 36 10 36 -3 0 -13 -16 -21 -36z"/>
<path d="M1464 5087 c-15 -18 -25 -47 -15 -47 12 0 41 35 41 48 0 15 -12 15
-26 -1z"/>
<path d="M1776 5072 c-3 -5 1 -9 9 -9 8 0 15 4 15 9 0 4 -4 8 -9 8 -6 0 -12
-4 -15 -8z"/>
<path d="M1385 5020 c-3 -5 -1 -10 4 -10 6 0 11 5 11 10 0 6 -2 10 -4 10 -3 0
-8 -4 -11 -10z"/>
<path d="M4463 5008 c4 -10 2 -18 -3 -18 -21 0 12 -49 33 -50 11 0 -2 40 -21
65 -11 16 -13 16 -9 3z"/>
<path d="M4335 4972 c19 -23 26 -34 59 -93 l19 -34 -23 20 -23 20 7 -25 c7
-23 6 -24 -8 -7 -14 18 -14 18 -21 -2 -7 -23 17 -76 40 -84 8 -4 15 -14 15
-24 0 -19 39 -75 40 -57 0 5 -5 15 -12 22 -8 8 -8 12 -1 12 11 0 28 -29 24
-43 -1 -5 8 -11 19 -14 11 -3 20 -12 20 -20 0 -8 5 -11 11 -8 6 4 21 -3 35
-16 l24 -22 0 22 c0 14 -7 25 -19 28 -11 3 -22 14 -24 25 -3 11 -10 17 -16 14
-5 -4 -13 -1 -17 5 -4 8 -3 9 4 5 7 -4 12 -2 12 5 0 13 59 -47 87 -88 16 -25
43 -31 43 -10 0 26 -13 57 -21 51 -5 -3 -4 -14 2 -26 8 -16 8 -19 -1 -13 -7 4
-18 23 -26 42 -8 18 -21 36 -29 39 -8 4 -12 10 -9 16 3 5 14 2 25 -8 18 -16
19 -16 14 -1 -4 9 -15 19 -25 22 -11 3 -33 29 -50 58 -16 29 -67 88 -112 132
-45 44 -74 70 -63 57z m90 -142 c3 -5 2 -10 -4 -10 -5 0 -13 5 -16 10 -3 6 -2
10 4 10 5 0 13 -4 16 -10z m-51 -16 c9 -24 2 -26 -12 -4 -7 11 -8 20 -3 20 5
0 12 -7 15 -16z m117 -77 c12 -22 12 -22 -10 -3 -11 11 -21 23 -21 28 0 14 19
-1 31 -25z"/>
<path d="M4300 4967 c0 -5 8 -21 19 -35 10 -15 21 -34 24 -42 4 -11 6 -9 6 5
1 11 -10 34 -24 50 -13 17 -24 26 -25 22z"/>
<path d="M1604 4878 c-27 -29 -53 -53 -58 -53 -5 0 -10 -8 -12 -19 -1 -10 -11
-28 -21 -40 -11 -11 -25 -30 -33 -40 -13 -18 -13 -19 0 -11 8 4 5 -3 -6 -16
-12 -13 -20 -29 -17 -35 2 -6 -3 -17 -12 -24 -8 -7 -15 -9 -15 -5 0 4 -7 2
-15 -5 -15 -13 -21 -50 -7 -50 4 0 8 -10 9 -22 7 -94 17 -119 29 -74 7 27 24
36 24 12 0 -8 5 -16 11 -18 8 -3 8 -14 0 -42 -6 -25 -7 -45 -1 -55 6 -11 10
-12 11 -3 1 6 2 15 3 20 1 4 6 26 10 49 9 48 40 84 49 58 7 -16 -8 -65 -19
-65 -3 0 -3 15 0 33 5 24 4 27 -3 12 -12 -26 -14 -68 -2 -61 13 8 19 -14 15
-57 -4 -43 11 -41 21 3 4 16 18 46 31 66 14 20 23 39 20 41 -3 3 -15 -12 -28
-32 -12 -21 -24 -33 -26 -26 -2 7 3 20 12 30 21 23 22 65 1 57 -20 -7 -20 25
1 95 13 43 18 50 24 34 4 -11 3 -23 -3 -26 -11 -8 -1 -29 14 -29 5 0 9 9 9 19
0 11 5 23 10 26 6 3 10 10 10 16 0 17 -20 9 -21 -8 0 -11 -4 -7 -9 9 -7 24 -1
34 61 99 38 40 67 74 64 77 -3 3 -15 -4 -28 -16 -13 -12 -27 -22 -31 -22 -4 0
-23 -12 -42 -27 -38 -29 -83 -109 -104 -185 -15 -58 -29 -71 -54 -53 -17 13
-17 16 -4 37 8 13 20 41 27 63 16 52 47 114 72 145 20 24 20 24 9 2 -20 -40
-4 -35 31 10 19 24 26 37 16 29 -21 -16 -22 -3 -2 23 12 16 12 22 2 29 -8 6
-6 7 6 3 12 -4 20 1 26 17 5 12 6 26 4 31 -3 4 1 12 8 17 11 7 11 9 -2 9 -9 0
-38 -24 -65 -52z m6 -35 c-1 -5 -17 -26 -37 -48 -39 -43 -35 -30 6 22 27 34
31 38 31 26z m-88 -105 c-7 -7 -12 -8 -12 -2 0 14 12 26 19 19 2 -3 -1 -11 -7
-17z"/>
<path d="M4480 4926 c0 -2 7 -9 15 -16 9 -7 15 -8 15 -2 0 5 -7 12 -15 16 -8
3 -15 4 -15 2z"/>
<path d="M1467 4906 c-9 -7 -17 -17 -17 -21 0 -5 -11 -23 -25 -41 -25 -32 -33
-64 -17 -64 12 0 56 62 59 84 2 11 8 26 15 33 15 19 7 24 -15 9z"/>
<path d="M4530 4890 c0 -5 5 -10 11 -10 5 0 7 5 4 10 -3 6 -8 10 -11 10 -2 0
-4 -4 -4 -10z"/>
<path d="M4183 4872 c0 -11 6 -20 11 -19 6 1 10 -5 11 -13 0 -25 25 -61 37
-54 7 5 6 11 -5 19 -10 7 -17 21 -17 32 0 11 -9 28 -19 38 -19 16 -20 16 -18
-3z"/>
<path d="M4210 4887 c0 -2 7 -18 15 -33 13 -25 15 -26 15 -8 0 12 -7 27 -15
34 -8 7 -15 10 -15 7z"/>
<path d="M4490 4843 c1 -5 14 -23 29 -41 23 -27 30 -30 35 -17 4 10 -4 25 -21
41 -26 24 -43 31 -43 17z"/>
<path d="M4180 4813 c0 -5 9 -23 20 -41 11 -18 18 -37 15 -43 -4 -5 -3 -19 1
-32 7 -21 8 -21 15 8 7 23 3 38 -17 72 -24 41 -34 52 -34 36z"/>
<path d="M4325 4735 c22 -52 39 -70 24 -25 -6 19 -18 42 -26 50 -11 11 -10 6
2 -25z"/>
<path d="M4181 4744 c0 -11 3 -14 6 -6 3 7 2 16 -1 19 -3 4 -6 -2 -5 -13z"/>
<path d="M1665 4707 c-24 -14 -36 -29 -29 -36 3 -3 9 1 14 9 5 8 12 11 16 7 4
-3 1 -13 -6 -22 -7 -8 -9 -15 -4 -15 13 1 47 50 34 50 -6 0 -8 5 -5 10 8 12 5
12 -20 -3z"/>
<path d="M1720 4659 c0 -5 5 -7 10 -4 6 3 10 8 10 11 0 2 -4 4 -10 4 -5 0 -10
-5 -10 -11z"/>
<path d="M4446 4597 c1 -17 5 -53 9 -78 5 -31 4 -49 -4 -53 -6 -4 -9 -2 -6 6
3 8 -2 22 -11 33 -8 11 -13 14 -9 7 4 -7 2 -18 -3 -25 -10 -11 -12 -18 -12
-33 0 -4 -8 0 -17 7 -15 13 -16 12 -11 -9 5 -19 4 -21 -8 -11 -19 16 -18 7 8
-46 25 -51 38 -57 38 -17 1 23 2 24 11 10 6 -11 6 -25 1 -35 -12 -25 9 -98 28
-98 8 0 16 -10 18 -22 2 -13 7 -23 12 -23 4 0 6 9 3 20 -3 11 -1 20 5 20 6 0
13 -13 17 -28 3 -15 16 -34 28 -41 20 -13 21 -13 8 3 -13 15 -13 19 0 28 11 8
11 9 -3 5 -10 -4 -18 1 -21 14 -3 10 -2 19 2 19 13 0 45 -40 38 -47 -4 -3 0
-15 10 -25 18 -20 38 -25 26 -5 -15 24 -31 77 -22 77 5 0 11 -11 15 -25 3 -14
13 -25 22 -25 13 0 13 2 -1 18 -8 9 -16 20 -16 25 0 4 -7 22 -16 40 -8 17 -10
23 -3 13 7 -11 26 -33 41 -50 19 -21 24 -23 14 -7 -9 13 -13 30 -10 37 3 8 0
14 -7 14 -6 0 -10 6 -7 13 2 6 -3 21 -12 31 -15 18 -15 19 11 12 22 -5 26 -3
22 9 -4 8 -10 15 -15 15 -5 0 -9 9 -9 21 0 13 4 18 12 13 8 -5 9 4 4 35 -4 25
-3 40 3 37 5 -3 7 3 4 15 -4 14 -8 17 -13 9 -5 -9 -14 -4 -26 16 -11 16 -27
38 -38 49 -18 20 -18 20 -11 -2 10 -36 -3 -26 -21 15 -9 20 -18 32 -21 25 -2
-6 3 -26 12 -43 9 -18 14 -34 11 -38 -3 -3 -6 -2 -6 2 0 4 -8 2 -19 -3 -16 -9
-21 -6 -30 17 -6 15 -9 37 -7 49 3 12 -1 26 -8 32 -10 8 -12 3 -10 -22z m168
-166 c-8 -10 -24 14 -24 37 l1 27 13 -30 c7 -16 12 -32 10 -34z m-43 -3 c11
-21 11 -22 -4 -9 -10 7 -17 17 -17 22 0 15 9 10 21 -13z m-67 -64 c3 -8 2 -12
-4 -9 -6 3 -10 10 -10 16 0 14 7 11 14 -7z m86 6 c0 -5 -2 -10 -4 -10 -3 0 -8
5 -11 10 -3 6 -1 10 4 10 6 0 11 -4 11 -10z m-30 -40 c0 -13 -1 -13 -10 0 -5
8 -10 22 -10 30 0 13 1 13 10 0 5 -8 10 -22 10 -30z m-70 -63 c0 -15 -30 21
-39 46 -16 41 1 40 20 0 10 -21 18 -42 19 -46z m40 -2 c0 -11 -14 7 -31 40 -7
13 -3 12 10 -5 11 -14 21 -29 21 -35z"/>
<path d="M1701 4592 c-7 -13 -11 -26 -8 -28 8 -8 29 25 25 38 -3 8 -9 4 -17
-10z"/>
<path d="M4640 4600 c0 -5 5 -10 11 -10 5 0 7 5 4 10 -3 6 -8 10 -11 10 -2 0
-4 -4 -4 -10z"/>
<path d="M4650 4546 c5 -21 14 -44 21 -50 9 -8 10 -7 5 7 -3 10 -6 24 -6 31 0
7 -6 21 -14 32 -13 17 -14 15 -6 -20z"/>
<path d="M1600 4544 c0 -8 5 -12 10 -9 6 4 8 11 5 16 -9 14 -15 11 -15 -7z"/>
<path d="M4314 4538 c4 -18 2 -28 -4 -28 -7 0 -9 -8 -5 -21 5 -15 4 -19 -4
-15 -15 10 -14 -10 2 -26 8 -7 12 -20 10 -28 -3 -12 -2 -12 6 1 11 18 9 125
-4 136 -4 5 -5 -4 -1 -19z"/>
<path d="M4226 4515 c8 -37 14 -45 14 -19 0 10 -5 26 -10 34 -8 11 -9 7 -4
-15z"/>
<path d="M4200 4451 c0 -5 5 -13 10 -16 6 -3 10 -2 10 4 0 5 -4 13 -10 16 -5
3 -10 2 -10 -4z"/>
<path d="M1708 4394 c-14 -27 -14 -32 -2 -27 13 5 31 50 23 57 -2 2 -12 -11
-21 -30z"/>
<path d="M4340 4416 c0 -15 40 -69 47 -63 6 6 -30 76 -39 77 -5 0 -8 -6 -8
-14z"/>
<path d="M4220 4411 c0 -6 5 -13 10 -16 6 -3 10 1 10 9 0 9 -4 16 -10 16 -5 0
-10 -4 -10 -9z"/>
<path d="M4320 4390 c0 -5 5 -10 10 -10 6 0 10 5 10 10 0 6 -4 10 -10 10 -5 0
-10 -4 -10 -10z"/>
<path d="M4283 4355 c2 -22 11 -53 20 -70 l16 -30 -6 45 c-3 25 -12 56 -19 70
-14 24 -14 24 -11 -15z"/>
<path d="M1736 4355 c4 -8 1 -15 -6 -15 -6 0 -10 -6 -7 -12 2 -7 -2 -28 -9
-45 -7 -18 -9 -33 -3 -33 16 0 10 -18 -8 -24 -15 -4 -15 -5 1 -3 10 1 25 12
34 25 14 21 13 22 -4 15 -17 -6 -18 -5 -4 11 16 20 23 96 9 96 -4 0 -6 -7 -3
-15z"/>
<path d="M4230 4350 c0 -11 4 -20 9 -20 5 0 7 9 4 20 -3 11 -7 20 -9 20 -2 0
-4 -9 -4 -20z"/>
<path d="M4320 4341 c0 -6 5 -13 10 -16 6 -3 10 1 10 9 0 9 -4 16 -10 16 -5 0
-10 -4 -10 -9z"/>
<path d="M4390 4327 c0 -10 39 -80 40 -71 0 20 -22 74 -31 74 -5 0 -9 -1 -9
-3z"/>
<path d="M1540 4239 c-7 -11 -10 -23 -7 -25 2 -2 9 7 15 21 14 30 7 33 -8 4z"/>
<path d="M4420 4234 c0 -13 18 -39 24 -34 2 3 -2 14 -10 24 -8 11 -14 16 -14
10z"/>
<path d="M4460 4185 c0 -12 32 -67 36 -63 4 5 -25 68 -32 68 -2 0 -4 -2 -4 -5z"/>
<path d="M4535 4160 c16 -30 37 -49 50 -43 18 6 7 33 -14 33 -9 0 -23 6 -30
13 -11 10 -12 9 -6 -3z"/>
<path d="M4570 4100 c-12 -8 -11 -13 6 -32 12 -13 24 -30 28 -38 3 -8 3 -1 0
15 -3 17 -7 35 -8 42 -3 19 -10 23 -26 13z"/>
<path d="M4543 4073 c1 -12 7 -25 14 -27 17 -7 16 6 -1 30 -14 18 -15 18 -13
-3z"/>
<path d="M4496 4047 c3 -10 9 -15 12 -12 3 3 0 11 -7 18 -10 9 -11 8 -5 -6z"/>
<path d="M4537 4013 c3 -12 11 -28 19 -34 20 -17 17 -32 -6 -26 -17 4 -17 2 6
-29 27 -35 48 -46 38 -19 -4 8 -10 15 -15 15 -5 0 -9 5 -9 11 0 6 7 9 15 5 18
-6 19 -2 4 27 -9 19 -7 18 10 -3 11 -14 19 -30 16 -37 -4 -13 22 -39 32 -30 3
4 1 13 -5 20 -7 8 -9 17 -5 20 3 4 1 7 -5 7 -7 0 -12 7 -12 15 0 7 -6 18 -14
22 -7 4 -19 19 -25 31 -7 13 -15 21 -19 18 -3 -4 0 -12 6 -18 7 -7 12 -17 12
-22 0 -6 -11 3 -25 19 -20 26 -23 27 -18 8z"/>
<path d="M4520 3912 c0 -11 50 -62 61 -62 6 0 7 -4 4 -10 -3 -6 1 -7 9 -4 18
7 11 24 -10 24 -8 0 -14 6 -14 13 0 8 -8 21 -18 30 -20 18 -32 22 -32 9z"/>
<path d="M4520 3874 c0 -6 7 -19 15 -30 8 -10 14 -14 14 -9 0 6 -6 19 -14 29
-8 11 -15 15 -15 10z"/>
<path d="M4623 3839 c-2 -23 3 -25 10 -4 4 8 3 16 -1 19 -4 3 -9 -4 -9 -15z"/>
<path d="M3403 3791 c-24 -9 -43 -21 -43 -29 0 -9 -9 -12 -30 -8 -17 2 -28 0
-24 -5 3 -5 -1 -9 -8 -9 -9 0 -9 -3 2 -10 9 -6 10 -10 3 -10 -6 0 -15 5 -18
10 -9 15 -27 1 -21 -16 3 -9 -8 -21 -32 -33 -32 -16 -68 -19 -262 -23 l-225
-5 -60 28 c-33 15 -55 28 -48 28 28 2 -1 29 -30 29 -18 -1 -40 2 -49 7 -10 4
-25 4 -34 1 -10 -4 -13 -2 -8 6 5 8 0 9 -17 5 -13 -4 -67 -2 -119 4 -187 21
-357 11 -471 -26 -25 -9 -101 -28 -169 -43 -133 -30 -158 -45 -127 -80 19 -21
13 -34 -11 -24 -15 5 -15 3 1 -21 14 -21 14 -25 2 -21 -8 4 -15 2 -15 -3 0 -6
-19 -18 -42 -28 -24 -11 -45 -20 -47 -22 -11 -8 48 -48 69 -46 15 1 32 -7 42
-20 20 -25 25 -21 43 30 l13 38 11 -45 c86 -334 115 -405 198 -488 46 -46 89
-72 178 -107 29 -12 55 -14 200 -14 231 -1 325 34 438 164 50 57 72 93 97 156
51 133 77 308 49 336 -15 15 -6 27 35 47 58 27 200 17 235 -18 14 -15 14 -19
0 -42 -14 -23 -13 -34 13 -137 46 -179 114 -299 199 -353 8 -5 19 -18 25 -29
12 -23 133 -87 151 -81 6 3 13 0 16 -7 2 -8 48 -12 157 -12 129 -1 167 3 229
21 88 25 83 38 -9 18 -111 -24 -311 -19 -363 8 -32 17 -12 18 40 3 52 -16 148
-15 177 2 13 7 1 8 -39 5 -105 -9 -239 35 -313 103 -22 20 -55 62 -73 93 -35
63 -119 276 -119 304 0 9 22 43 48 75 37 43 60 61 92 71 23 7 49 19 57 27 8 9
18 13 23 10 4 -3 13 1 19 9 6 7 47 24 91 37 63 19 80 28 80 43 0 17 -6 18 -71
12 -82 -8 -178 -36 -229 -66 l-35 -21 25 22 c43 38 143 77 251 99 174 36 416
28 502 -17 44 -22 107 -83 127 -123 57 -112 45 -332 -26 -472 -39 -78 -69
-113 -130 -153 -53 -35 -63 -48 -45 -59 13 -9 93 47 140 98 53 59 94 146 117
254 15 71 26 93 30 61 1 -5 2 -12 3 -16 0 -4 13 18 29 48 15 30 30 52 33 49 7
-6 76 44 102 72 14 17 17 18 17 4 0 -9 7 -16 16 -16 11 0 14 6 9 22 -6 16 -4
20 8 15 9 -3 18 -1 20 6 3 9 8 9 18 -1 12 -11 12 -13 -1 -10 -10 2 -16 -6 -18
-24 -2 -16 2 -28 8 -28 6 0 9 4 5 9 -3 6 3 15 13 20 11 6 22 24 26 41 3 17 19
42 36 56 16 14 30 31 30 38 0 20 -39 46 -81 52 l-41 7 25 -27 c13 -14 30 -26
36 -26 7 0 9 -5 6 -10 -4 -7 -38 -9 -87 -7 -70 3 -82 7 -106 31 -22 21 -24 28
-13 35 32 21 -28 61 -91 61 -9 0 -88 15 -175 34 -87 19 -187 37 -223 40 -55 6
-202 -2 -350 -19 -19 -2 -29 -1 -22 2 6 2 12 8 12 12 0 12 -63 7 -107 -8z m55
-16 c-3 -3 -9 2 -12 12 -6 14 -5 15 5 6 7 -7 10 -15 7 -18z m302 8 c-19 -3
-81 -10 -137 -17 -56 -6 -100 -10 -97 -7 11 12 131 29 199 28 39 0 54 -2 35
-4z m-1271 -58 c79 -19 282 -99 261 -103 -9 -1 -49 11 -90 29 -41 17 -124 44
-185 59 -113 29 -101 42 14 15z m-220 0 c-3 -2 -46 -6 -95 -9 -108 -6 -180
-21 -201 -41 -8 -8 -23 -15 -34 -15 -21 0 -26 -16 -6 -23 7 -3 4 -6 -6 -6 -23
-1 -12 -21 12 -21 9 0 27 9 39 20 12 11 25 19 29 18 4 -1 40 4 78 10 68 12
142 11 162 -1 18 -11 163 -11 174 0 8 8 8 13 0 17 -6 4 -11 2 -11 -3 0 -6 -5
-11 -11 -11 -5 0 -7 5 -4 10 4 6 -8 16 -26 24 -48 20 -23 24 61 8 64 -11 76
-16 76 -33 0 -12 -5 -18 -13 -15 -7 3 -15 0 -19 -6 -4 -7 -9 -6 -15 3 -7 11
-9 11 -9 -2 0 -11 33 -30 101 -59 75 -32 115 -56 150 -90 56 -55 61 -47 19 28
-33 57 -87 102 -156 128 -24 9 -43 19 -41 21 3 2 29 -6 60 -17 62 -23 121 -80
158 -152 34 -66 38 -194 9 -290 -44 -147 -116 -245 -220 -302 -40 -22 -56 -26
-77 -19 -24 8 -21 10 36 28 33 10 61 22 61 27 0 4 6 8 14 8 22 0 92 83 124
147 33 65 72 184 71 217 0 11 -14 -19 -30 -69 -68 -204 -157 -301 -304 -333
-96 -21 -130 -24 -253 -23 -84 1 -135 6 -160 16 l-37 15 25 -20 25 -20 -29 10
c-43 16 -50 22 -35 31 10 6 11 9 2 9 -23 0 -92 71 -122 124 -50 86 -81 197
-88 304 -4 85 -2 105 17 156 55 144 171 203 404 205 55 1 97 -1 95 -4z m58
-11 c-3 -3 -12 -4 -19 -1 -8 3 -5 6 6 6 11 1 17 -2 13 -5z m1933 -74 c13 -8
13 -10 -2 -10 -9 0 -20 5 -23 10 -8 13 5 13 25 0z m-1242 -7 c-10 -2 -28 -2
-40 0 -13 2 -5 4 17 4 22 1 32 -1 23 -4z m129 1 c-3 -3 -12 -4 -19 -1 -8 3 -5
6 6 6 11 1 17 -2 13 -5z m1210 -35 c-9 -6 -15 -14 -12 -19 6 -9 -36 -43 -44
-35 -2 3 11 21 29 40 18 19 36 32 39 29 3 -3 -2 -10 -12 -15z m-1087 8 c0 -2
-10 -12 -22 -23 l-23 -19 19 23 c18 21 26 27 26 19z m-1560 -16 c0 -6 -9 -12
-20 -16 -21 -7 -43 2 -36 13 7 11 56 13 56 3z m1487 -113 c-3 -8 -6 -5 -6 6
-1 11 2 17 5 13 3 -3 4 -12 1 -19z m-5 -108 c3 -42 2 -64 -2 -50 -8 25 -13
137 -6 129 2 -2 6 -38 8 -79z m62 -206 c3 -8 2 -12 -4 -9 -6 3 -10 10 -10 16
0 14 7 11 14 -7z m87 -129 c32 -37 35 -42 10 -20 -18 17 -42 44 -54 60 -24 35
-15 27 44 -40z m49 -75 c21 0 35 -16 22 -24 -12 -7 -64 29 -55 38 4 4 9 2 11
-3 2 -6 12 -11 22 -11z m-995 -70 c-3 -5 -2 -10 4 -10 5 0 12 5 14 10 3 6 4 5
3 -2 -3 -15 -56 -24 -56 -10 0 13 11 22 27 22 8 0 11 -4 8 -10z m-250 -10 c13
-6 15 -9 5 -9 -8 0 -22 4 -30 9 -18 12 -2 12 25 0z m175 -9 c0 -9 -130 -5
-138 4 -3 3 20 4 52 4 31 -1 59 1 63 4 7 8 23 -1 23 -12z"/>
<path d="M2192 3635 c-67 -29 -140 -100 -156 -152 -13 -39 9 -25 31 21 20 41
43 59 159 133 26 16 6 15 -34 -2z"/>
<path d="M2300 3612 c-14 -2 -41 -11 -60 -20 -19 -9 -37 -17 -40 -17 -30 -5
-48 -18 -43 -31 3 -7 0 -15 -6 -15 -6 -1 -15 -2 -21 -3 -5 0 -9 -4 -7 -7 1 -3
-13 -18 -31 -33 -17 -16 -30 -31 -27 -35 2 -5 -2 -17 -10 -27 -17 -22 -19 -38
-5 -29 6 3 7 -1 4 -9 -11 -30 15 -16 47 24 18 22 39 40 46 40 8 0 11 5 8 10
-4 6 8 25 26 43 l32 32 10 -30 c19 -58 45 -85 83 -85 22 0 37 6 40 15 5 12 9
13 20 4 24 -20 61 5 75 49 10 34 8 44 -10 80 -12 23 -27 42 -34 43 -6 0 -25 1
-42 3 -16 1 -41 0 -55 -2z m60 -71 c0 -6 -4 -13 -10 -16 -5 -3 -10 1 -10 9 0
9 5 16 10 16 6 0 10 -4 10 -9z"/>
<path d="M1896 3591 c-4 -5 3 -7 14 -4 23 6 26 13 6 13 -8 0 -17 -4 -20 -9z"/>
<path d="M2450 3581 c0 -5 7 -12 16 -15 14 -5 15 -4 4 9 -14 17 -20 19 -20 6z"/>
<path d="M1880 3561 c0 -6 4 -13 10 -16 6 -3 7 1 4 9 -7 18 -14 21 -14 7z"/>
<path d="M1850 3543 c-42 -16 -61 -63 -24 -63 8 0 11 6 8 15 -4 8 -2 15 3 15
4 0 14 9 21 20 7 11 11 20 10 19 -2 0 -10 -3 -18 -6z"/>
<path d="M2588 3499 c18 -12 35 -19 38 -16 3 3 -8 13 -25 21 -43 23 -52 19
-13 -5z"/>
<path d="M1815 3459 c-4 -6 -5 -12 -2 -15 2 -3 7 2 10 11 7 17 1 20 -8 4z"/>
<path d="M2620 3460 c0 -5 5 -10 10 -10 6 0 10 5 10 10 0 6 -4 10 -10 10 -5 0
-10 -4 -10 -10z"/>
<path d="M4590 3806 c0 -2 7 -9 15 -16 13 -11 14 -10 9 4 -5 14 -24 23 -24 12z"/>
<path d="M4571 3761 c5 -24 7 -46 4 -49 -3 -3 -5 0 -5 7 0 9 -4 8 -15 -3 -21
-21 -20 -22 31 -40 41 -14 45 -14 40 0 -3 9 -6 26 -6 38 0 12 -13 37 -29 56
l-30 35 10 -44z"/>
<path d="M4490 3738 c0 -10 -6 -18 -12 -19 -7 0 0 -5 16 -10 38 -11 41 -7 17
22 -17 20 -20 21 -21 7z"/>
<path d="M3733 3719 c4 -25 28 -32 60 -17 9 5 17 5 17 0 0 -4 35 -13 78 -19
46 -7 95 -21 118 -35 45 -26 172 -152 184 -182 16 -40 11 37 -6 86 -11 34 -26
54 -57 75 -23 15 -44 31 -47 34 -8 10 -64 37 -111 54 -24 8 -88 18 -142 21
l-97 6 3 -23z"/>
<path d="M4400 3730 c0 -5 5 -10 11 -10 5 0 7 5 4 10 -3 6 -8 10 -11 10 -2 0
-4 -4 -4 -10z"/>
<path d="M1552 3690 c0 -14 2 -19 5 -12 2 6 2 18 0 25 -3 6 -5 1 -5 -13z"/>
<path d="M3625 3700 c-3 -5 -1 -10 4 -10 6 0 11 5 11 10 0 6 -2 10 -4 10 -3 0
-8 -4 -11 -10z"/>
<path d="M3690 3690 c0 -5 5 -10 10 -10 6 0 10 5 10 10 0 6 -4 10 -10 10 -5 0
-10 -4 -10 -10z"/>
<path d="M3790 3655 c14 -8 34 -14 45 -14 18 0 17 1 -5 14 -14 8 -34 14 -45
14 -18 0 -17 -1 5 -14z"/>
<path d="M1510 3660 c-8 -19 -7 -61 1 -65 5 -4 19 1 31 10 13 10 16 15 8 13
-9 -3 -20 5 -27 21 -6 14 -12 24 -13 21z"/>
<path d="M3548 3611 c-60 -33 -70 -45 -35 -39 21 4 27 2 26 -11 -4 -40 3 -62
26 -90 24 -28 29 -30 91 -27 57 2 69 5 85 26 10 14 22 42 25 63 4 20 9 37 13
37 12 -1 49 -36 60 -57 7 -13 18 -23 26 -23 8 0 15 -4 15 -9 0 -4 11 -20 25
-35 14 -15 25 -24 25 -20 0 3 6 1 14 -5 11 -9 15 -9 18 1 5 15 -20 68 -33 68
-5 0 -8 4 -6 9 1 5 -7 17 -18 26 -11 9 -13 13 -5 9 13 -7 13 -5 1 9 -7 9 -17
14 -22 11 -5 -3 -9 1 -9 9 0 15 -56 41 -70 32 -4 -2 -17 5 -29 16 -26 24 -101
30 -126 9 -13 -10 -18 -10 -33 2 -15 14 -22 13 -64 -11z m97 -61 c-6 -9 -9 -9
-16 1 -10 17 0 34 13 21 6 -6 7 -16 3 -22z m-32 -73 c-7 -11 -23 2 -23 19 0
12 2 12 14 2 8 -7 12 -16 9 -21z"/>
<path d="M3881 3608 c11 -13 32 -40 45 -61 14 -21 29 -35 33 -33 14 9 -22 74
-46 85 -13 6 -23 15 -23 21 0 5 -7 10 -15 10 -12 0 -11 -5 6 -22z"/>
<path d="M4754 3529 c-58 -57 -106 -114 -121 -144 -14 -27 -33 -59 -42 -70
-23 -27 -41 -89 -30 -106 12 -19 25 2 40 66 6 27 23 69 36 93 26 43 129 139
139 129 4 -3 17 7 31 24 14 16 31 29 38 29 15 0 27 51 15 64 -6 6 -48 -29
-106 -85z"/>
<path d="M3465 3559 c-4 -6 -5 -12 -2 -15 2 -3 7 2 10 11 7 17 1 20 -8 4z"/>
<path d="M3385 3512 c-36 -23 -74 -60 -75 -72 0 -4 16 -4 35 -2 19 2 35 8 35
14 0 5 -9 6 -20 3 -11 -4 -20 -2 -20 4 0 6 12 11 26 11 14 0 23 4 19 9 -3 5 7
19 21 30 39 31 26 33 -21 3z"/>
<path d="M4530 3459 c0 -5 5 -7 10 -4 6 3 10 8 10 11 0 2 -4 4 -10 4 -5 0 -10
-5 -10 -11z"/>
<path d="M1290 3439 c-16 -10 -18 -8 61 -68 22 -17 29 -18 38 -7 8 10 2 20
-27 43 -52 41 -56 43 -72 32z"/>
<path d="M3790 3431 c0 -6 4 -13 10 -16 6 -3 7 1 4 9 -7 18 -14 21 -14 7z"/>
<path d="M1585 3412 c-13 -8 -17 -52 -6 -52 5 0 11 14 13 30 3 17 4 30 4 30
-1 0 -6 -4 -11 -8z"/>
<path d="M4520 3392 c0 -5 7 -15 15 -22 8 -7 15 -8 15 -2 0 5 -7 15 -15 22 -8
7 -15 8 -15 2z"/>
<path d="M1444 3326 c22 -20 44 -36 49 -36 16 0 -19 33 -55 53 l-33 18 39 -35z"/>
<path d="M1590 2960 c0 -5 5 -10 10 -10 6 0 10 5 10 10 0 6 -4 10 -10 10 -5 0
-10 -4 -10 -10z"/>
<path d="M4490 2928 c0 -9 5 -20 10 -23 13 -8 13 5 0 25 -8 13 -10 13 -10 -2z"/>
<path d="M3780 2926 c0 -2 11 -6 25 -8 14 -3 25 -1 25 3 0 5 -11 9 -25 9 -14
0 -25 -2 -25 -4z"/>
<path d="M1581 2890 c0 -8 4 -22 9 -30 12 -18 12 -2 0 25 -6 13 -9 15 -9 5z"/>
<path d="M4516 2865 c-3 -9 0 -15 9 -15 8 0 15 7 15 15 0 8 -4 15 -9 15 -5 0
-11 -7 -15 -15z"/>
<path d="M4481 2784 c0 -11 3 -14 6 -6 3 7 2 16 -1 19 -3 4 -6 -2 -5 -13z"/>
<path d="M1641 2774 c0 -11 3 -14 6 -6 3 7 2 16 -1 19 -3 4 -6 -2 -5 -13z"/>
<path d="M4494 2736 c4 -16 2 -26 -4 -26 -11 0 -9 -44 3 -56 11 -11 8 -26 -3
-19 -9 6 -16 -27 -10 -50 2 -5 2 -18 2 -27 0 -10 3 -18 9 -18 5 0 9 -9 9 -20
0 -11 4 -20 8 -20 18 0 21 14 7 34 -8 11 -15 27 -14 36 0 10 4 7 11 -7 6 -13
15 -23 20 -23 8 0 5 26 -10 75 -8 29 -13 66 -12 102 0 18 -5 35 -12 39 -8 5
-9 -1 -4 -20z"/>
<path d="M1630 2729 c0 -11 -4 -17 -10 -14 -13 8 -13 -18 0 -31 12 -12 2 -47
-11 -39 -4 3 -6 13 -3 23 5 13 4 14 -4 3 -12 -17 -8 -47 7 -43 6 1 11 -5 11
-14 0 -9 -5 -12 -12 -8 -7 5 -8 3 -2 -7 10 -16 12 -42 3 -49 -8 -7 13 -170 23
-170 12 0 14 50 4 103 -3 15 -2 26 2 23 4 -3 14 5 21 16 11 18 11 20 -3 15
-13 -5 -14 -3 -4 13 9 14 9 25 1 42 -12 24 -12 29 -14 111 -1 45 -9 69 -9 26z"/>
<path d="M4450 2730 c0 -19 3 -21 12 -12 9 9 9 15 0 24 -9 9 -12 7 -12 -12z"/>
<path d="M3135 2694 c-16 -8 -43 -24 -60 -34 -23 -14 -49 -18 -115 -18 -74 0
-93 4 -147 30 -49 23 -70 28 -95 23 -49 -11 -70 -25 -64 -41 5 -12 2 -12 -17
-3 -12 7 -25 17 -29 23 -5 8 -8 7 -8 -2 0 -21 59 -72 84 -72 39 0 37 -11 -8
-52 -33 -29 -43 -44 -39 -61 3 -14 2 -18 -4 -10 -6 8 -14 9 -23 3 -11 -7 -12
-10 -2 -10 7 0 10 -5 7 -11 -4 -6 -13 -8 -20 -5 -14 5 -81 -71 -71 -81 3 -4 6
-1 6 5 0 7 6 12 13 12 8 0 22 9 32 20 20 22 38 10 28 -17 -5 -12 -7 -12 -14
-2 -9 15 -53 -29 -82 -82 l-19 -34 37 40 c20 22 34 32 31 23 -3 -11 2 -19 16
-24 11 -3 17 -9 11 -13 -10 -7 -11 -31 0 -31 4 0 11 0 17 0 5 0 7 7 4 15 -5
12 30 85 41 85 2 0 -3 -16 -11 -35 -18 -45 -18 -65 2 -65 13 0 14 3 5 14 -7 9
-8 17 -3 20 6 3 13 -1 16 -10 3 -8 11 -12 17 -8 8 4 7 9 -2 15 -11 7 -10 9 4
9 11 0 15 4 11 12 -5 7 -3 8 5 3 7 -4 11 -15 8 -25 -3 -13 0 -17 9 -13 10 4
14 -3 14 -25 0 -29 18 -46 36 -34 14 11 11 35 -8 56 -9 10 -14 25 -11 34 5 12
8 11 14 -5 10 -27 29 -39 29 -19 0 10 6 13 16 9 8 -3 13 -11 10 -18 -5 -13 12
-35 27 -35 5 0 4 7 -3 15 -7 8 -10 21 -6 30 3 8 0 14 -6 12 -18 -4 -20 20 -3
37 9 9 14 20 10 26 -3 5 2 21 12 36 17 26 17 26 -4 20 -13 -4 -24 -2 -29 6 -4
7 -4 10 1 6 11 -11 35 11 35 32 0 10 6 22 13 28 9 8 12 2 13 -23 0 -19 -3 -32
-8 -29 -4 3 -5 -2 -2 -10 3 -9 11 -13 16 -10 6 4 8 -6 4 -27 -3 -19 -3 -27 1
-19 7 17 29 40 38 40 3 0 1 -9 -5 -21 -7 -11 -9 -23 -6 -26 2 -3 1 -16 -4 -29
-9 -22 -8 -23 10 -11 11 6 23 20 26 30 3 11 15 28 25 38 21 21 25 44 9 54 -6
4 -8 15 -5 26 8 23 -13 22 -32 -1 -18 -22 -17 4 2 40 16 31 9 40 -14 18 -10
-11 -11 -10 -6 5 9 23 0 22 -25 -5 -11 -12 -23 -18 -27 -14 -4 4 3 16 17 26
17 13 20 20 10 20 -8 0 -26 -18 -40 -39 -13 -22 -27 -38 -32 -35 -4 3 -13 -4
-20 -16 -7 -11 -17 -20 -22 -20 -6 0 -5 5 2 12 15 15 16 31 0 22 -7 -4 -8 -3
-4 4 4 7 16 12 27 12 13 0 25 12 35 35 8 20 13 39 10 43 -2 4 36 1 85 -7 l89
-15 73 37 c84 43 93 44 117 15 17 -22 17 -23 -1 -39 -18 -15 -18 -17 -3 -23 9
-4 15 -9 12 -12 -3 -2 -17 0 -32 5 -14 6 -26 9 -26 6 0 -2 11 -25 25 -51 29
-55 33 -71 6 -31 -10 16 -30 35 -45 42 -25 13 -26 13 -15 -6 9 -19 9 -19 -10
-10 -11 6 -22 11 -24 11 -11 0 -24 -58 -17 -70 5 -8 3 -25 -6 -41 -15 -30 -19
-53 -5 -30 12 19 35 -23 29 -53 -3 -13 0 -23 7 -23 15 0 13 65 -2 72 -7 2 -13
13 -13 24 0 18 4 16 33 -10 17 -17 44 -39 59 -50 l27 -20 -4 31 c-3 26 -1 29
14 21 23 -13 45 -39 47 -59 2 -8 7 -18 12 -21 4 -3 12 -15 16 -26 6 -14 10
-16 13 -7 3 7 -4 24 -16 36 -12 12 -18 25 -15 29 3 3 -6 22 -21 41 -26 35 -25
45 4 27 7 -5 10 -14 6 -20 -5 -8 1 -10 19 -5 25 6 38 -10 15 -18 -8 -3 -7 -13
4 -33 9 -17 16 -24 17 -17 0 8 9 12 23 10 12 -2 21 -9 19 -16 -1 -6 2 -12 8
-12 5 0 10 8 10 18 1 15 2 15 16 -3 8 -11 18 -19 22 -17 4 2 9 -5 10 -15 2
-10 8 -22 13 -28 6 -6 7 4 3 25 -4 19 -14 41 -22 48 -14 10 -14 12 -1 12 8 0
20 -5 27 -12 20 -20 29 4 16 42 -12 32 -19 27 -15 -10 2 -12 0 -13 -7 -1 -6 8
-15 10 -23 5 -9 -5 -7 1 4 16 28 39 31 51 19 71 -10 15 -9 17 3 13 11 -5 15 1
15 20 0 20 -5 26 -17 24 -11 -2 -24 9 -36 32 -16 32 -17 33 -14 8 2 -15 1 -29
-4 -30 -4 -2 -5 -16 -2 -31 3 -16 11 -26 18 -24 7 3 12 -5 12 -24 0 -16 -2
-29 -3 -29 -11 0 -45 97 -41 117 3 17 1 23 -9 19 -7 -3 -21 10 -33 30 -12 19
-25 33 -30 30 -5 -3 -15 2 -22 11 -12 14 -12 16 0 8 9 -5 12 -4 8 3 -4 5 -15
8 -25 6 -19 -6 -60 20 -46 29 12 7 88 -19 92 -32 2 -5 18 -7 36 -4 20 3 36 1
40 -6 4 -6 12 -11 18 -11 7 0 7 4 0 13 -8 9 -5 19 8 37 22 29 29 76 7 50 -31
-38 -53 -41 -109 -15 -29 14 -61 25 -70 25 -9 0 -20 5 -23 10 -9 15 -46 12
-80 -6z m-315 -124 c0 -5 -5 -10 -11 -10 -5 0 -7 5 -4 10 3 6 8 10 11 10 2 0
4 -4 4 -10z m0 -106 c0 -8 -5 -12 -10 -9 -6 4 -8 11 -5 16 9 14 15 11 15 -7z
m-91 -31 c0 -29 -2 -33 -8 -18 -7 18 -4 55 5 55 2 0 4 -17 3 -37z m448 22 c0
-8 -4 -15 -9 -15 -4 0 -8 7 -8 15 0 8 4 15 8 15 5 0 9 -7 9 -15z m253 5 c0 -5
-2 -10 -4 -10 -3 0 -8 5 -11 10 -3 6 -1 10 4 10 6 0 11 -4 11 -10z m-196 -35
c3 -8 1 -15 -3 -15 -5 0 -11 7 -15 15 -3 8 -1 15 3 15 5 0 11 -7 15 -15z m-57
-47 c8 -9 10 -18 5 -21 -12 -8 -45 51 -35 66 5 8 9 6 11 -8 2 -11 11 -27 19
-37z m33 12 c0 -5 -2 -10 -4 -10 -3 0 -8 5 -11 10 -3 6 -1 10 4 10 6 0 11 -4
11 -10z m113 -17 c-6 -16 -3 -16 18 2 13 11 21 16 17 11 -4 -5 -3 -15 4 -23 8
-11 7 -12 -6 -7 -10 4 -16 1 -16 -9 0 -8 -6 -17 -13 -20 -9 -3 -13 6 -14 29
-1 19 3 34 8 34 4 0 6 -8 2 -17z m-723 -12 c0 -5 -7 -12 -16 -15 -14 -5 -15
-4 -4 9 14 17 20 19 20 6z m187 -6 c8 -9 13 -18 11 -21 -3 -2 -13 5 -23 16
-21 23 -11 27 12 5z m-37 -111 c0 -8 -4 -12 -10 -9 -5 3 -10 13 -10 21 0 8 5
12 10 9 6 -3 10 -13 10 -21z"/>
<path d="M4452 2670 c-8 -13 -9 -27 -2 -42 6 -16 9 -18 9 -6 1 9 6 18 12 20 6
2 7 12 2 26 -8 21 -9 21 -21 2z"/>
<path d="M3350 2551 c0 -5 5 -13 10 -16 6 -3 10 -2 10 4 0 5 -4 13 -10 16 -5
3 -10 2 -10 -4z"/>
<path d="M4445 2550 c3 -5 8 -10 11 -10 2 0 4 5 4 10 0 6 -5 10 -11 10 -5 0
-7 -4 -4 -10z"/>
<path d="M4460 2515 c12 -15 4 -20 -22 -16 -13 2 -9 -11 9 -31 9 -10 13 -21 9
-26 -4 -4 -14 2 -22 12 -12 17 -14 17 -14 4 0 -9 6 -23 14 -31 19 -18 9 -68
-13 -65 -15 3 -42 41 -57 80 -3 9 -14 18 -23 21 -16 4 -16 2 -2 -28 9 -18 19
-31 24 -28 16 10 6 -18 -15 -36 -20 -19 -20 -22 -5 -39 9 -10 17 -26 17 -35 0
-19 15 -23 25 -7 7 11 25 4 25 -10 0 -5 -7 -7 -15 -4 -12 5 -15 -2 -15 -31 0
-24 4 -34 11 -29 8 4 9 -1 4 -16 -6 -17 -4 -21 6 -14 12 6 12 5 1 -8 -11 -14
-11 -20 0 -37 7 -12 17 -21 22 -21 5 0 18 -7 28 -17 17 -15 18 -15 18 5 0 11
-4 24 -10 27 -5 3 -10 11 -10 17 0 7 5 7 14 -1 10 -9 15 -8 19 3 4 9 2 18 -3
21 -15 9 -42 73 -37 87 3 7 12 -2 20 -22 9 -20 16 -27 17 -17 0 9 4 17 10 17
10 0 7 49 -6 85 l-7 20 16 -20 c16 -20 16 -19 17 8 0 15 7 30 15 33 10 4 15
20 15 46 0 32 -3 39 -16 34 -11 -4 -14 -1 -12 13 2 11 -8 31 -21 45 -26 27
-52 37 -31 11z m15 -35 c3 -5 1 -10 -4 -10 -6 0 -11 5 -11 10 0 6 2 10 4 10 3
0 8 -4 11 -10z m19 -39 c7 -11 -3 -41 -14 -41 -4 0 -7 11 -6 25 1 25 10 32 20
16z m30 -55 c-3 -9 -10 -16 -15 -16 -11 0 -12 21 -3 45 6 15 8 15 16 2 4 -8 5
-22 2 -31z m-94 -66 c0 -5 -4 -10 -10 -10 -5 0 -10 5 -10 10 0 6 5 10 10 10 6
0 10 -4 10 -10z m-3 -122 c-3 -8 -6 -5 -6 6 -1 11 2 17 5 13 3 -3 4 -12 1 -19z"/>
<path d="M3062 2485 c0 -16 2 -22 5 -12 2 9 2 23 0 30 -3 6 -5 -1 -5 -18z"/>
<path d="M4537 2496 c-4 -10 -5 -21 -2 -24 9 -9 17 6 13 25 -3 17 -4 17 -11
-1z"/>
<path d="M3484 2469 c-3 -6 0 -15 7 -20 10 -6 11 -9 2 -9 -7 0 -13 -4 -13 -10
0 -16 17 -11 25 7 3 10 1 19 -4 21 -6 2 -9 8 -5 13 3 5 3 9 0 9 -3 0 -8 -5
-12 -11z"/>
<path d="M3721 2470 c5 -26 -11 -71 -23 -64 -7 5 -9 2 -5 -9 3 -9 2 -19 -3
-22 -5 -3 -11 3 -15 14 -3 10 -15 27 -27 37 l-22 19 15 -25 c60 -98 63 -105
45 -90 -18 14 -18 13 -11 -20 9 -41 24 -74 32 -67 3 3 1 12 -3 19 -12 18 -11
29 1 55 6 12 10 35 9 52 -1 17 2 31 7 31 5 0 9 -13 9 -30 0 -16 5 -30 10 -30
14 0 12 33 -4 55 -7 10 -11 27 -8 37 5 21 18 24 25 6 3 -8 6 -8 6 -2 1 6 -8
19 -20 30 -16 14 -20 15 -18 4z"/>
<path d="M4381 2456 c-8 -10 -9 -16 -1 -21 5 -3 10 0 10 9 0 8 6 17 13 19 7 4
8 6 1 6 -6 1 -17 -5 -23 -13z"/>
<path d="M3054 2426 c-2 -20 1 -22 11 -13 7 7 10 18 8 24 -8 21 -18 15 -19
-11z"/>
<path d="M2997 2433 c-4 -7 -3 -14 3 -18 6 -4 8 -10 5 -15 -3 -5 -1 -11 5 -15
12 -7 12 11 1 39 -5 13 -10 16 -14 9z"/>
<path d="M3523 2428 c4 -10 2 -19 -3 -19 -20 -3 -25 -4 -37 -12 -7 -4 -14 0
-17 10 -3 10 -3 5 0 -12 3 -16 5 -38 5 -47 0 -10 4 -18 10 -18 10 0 12 12 10
45 -2 19 -1 19 13 2 10 -14 12 -26 5 -45 -9 -30 -7 -57 5 -69 5 -4 6 4 4 20
-3 15 -1 27 4 27 6 0 8 7 5 15 -12 28 12 25 29 -5 10 -16 23 -30 28 -30 5 0 1
9 -10 21 -16 17 -16 22 -4 29 8 6 19 10 24 10 5 0 1 9 -8 19 -10 11 -15 24
-12 30 4 5 1 13 -5 17 -8 4 -9 3 -5 -4 4 -7 2 -12 -5 -12 -8 0 -6 -6 4 -18 24
-26 21 -39 -3 -17 -11 10 -20 13 -20 7 0 -19 -18 -14 -22 6 -2 9 3 22 12 29
13 10 13 14 1 25 -12 11 -13 10 -8 -4z"/>
<path d="M3774 2421 c0 -13 6 -16 24 -13 25 5 25 5 -3 20 -17 9 -21 7 -21 -7z"/>
<path d="M4278 2415 c3 -19 1 -24 -10 -20 -10 4 -15 0 -15 -12 1 -10 0 -31 -2
-48 -1 -27 -3 -28 -15 -12 -19 25 -22 22 -19 -25 1 -33 0 -39 -8 -25 -6 9 -18
17 -27 17 -16 -1 -16 -2 1 -14 26 -20 20 -30 -8 -12 -25 16 -25 16 -27 -16 0
-18 -2 -45 -3 -60 -1 -18 2 -25 12 -21 9 4 11 0 7 -11 -3 -9 -9 -16 -14 -16
-4 0 -7 -14 -8 -31 0 -19 -10 -38 -24 -51 l-23 -20 -6 24 c-7 22 -7 22 -8 1
-1 -12 4 -25 9 -28 6 -3 10 -11 10 -17 0 -7 -6 -6 -15 2 -10 8 -15 9 -15 2 0
-6 -7 -9 -15 -6 -8 4 -15 1 -15 -5 0 -6 -6 -8 -14 -5 -8 3 -17 0 -22 -7 -4 -7
-3 -10 3 -6 6 4 19 -1 29 -9 10 -9 13 -13 7 -9 -7 3 -13 2 -13 -4 0 -5 6 -11
12 -13 9 -3 8 -10 -5 -23 -10 -10 -15 -21 -10 -24 14 -10 10 -99 -4 -94 -7 3
-13 13 -13 22 -1 14 -2 14 -14 -1 -7 -10 -16 -18 -19 -18 -11 0 -4 65 10 87
11 16 12 30 4 58 -7 27 -6 44 5 70 8 19 11 35 6 35 -11 0 -36 -61 -34 -85 0
-11 -2 -14 -4 -7 -9 20 -34 14 -34 -9 0 -11 -5 -30 -11 -41 -10 -18 -9 -20 5
-15 15 6 15 3 -2 -21 -35 -50 -37 -56 -18 -49 15 6 17 4 11 -10 -10 -26 -12
-73 -4 -73 5 0 2 -20 -5 -45 -8 -25 -11 -45 -6 -45 4 0 14 24 23 53 l16 52 -5
-50 c-3 -31 -12 -56 -23 -66 -10 -8 -22 -25 -25 -37 -4 -12 -11 -22 -16 -22
-5 0 -4 13 1 30 16 45 4 60 -14 18 -17 -40 -29 -51 -20 -20 2 10 -3 24 -11 31
-14 12 -16 10 -16 -10 0 -13 -4 -30 -9 -37 -5 -8 -8 11 -7 47 0 34 5 61 10 61
5 0 1 7 -10 15 -12 9 -14 14 -6 15 7 0 11 4 7 9 -3 5 1 28 9 50 l14 41 -23
-22 c-13 -12 -20 -29 -17 -37 3 -9 1 -12 -5 -8 -6 4 -14 1 -17 -5 -5 -10 -7
-10 -12 0 -8 16 -24 15 -24 -2 0 -9 9 -13 23 -12 15 2 23 -3 24 -13 1 -9 5
-31 9 -48 5 -26 3 -33 -9 -33 -19 0 -29 -24 -14 -39 6 -6 7 -11 3 -11 -15 0
-67 60 -61 70 3 5 1 11 -5 15 -6 4 -10 -6 -10 -24 0 -17 -5 -31 -10 -31 -6 0
2 -18 16 -40 15 -22 24 -43 21 -47 -4 -3 -10 3 -14 13 -4 10 -13 26 -21 34
-13 12 -14 11 -8 -8 6 -18 3 -22 -12 -22 -11 0 -23 6 -25 13 -4 9 -6 9 -6 0
-1 -6 7 -18 17 -25 9 -7 24 -22 32 -33 8 -11 0 -7 -17 9 -29 26 -33 27 -48 13
-14 -15 -13 -18 15 -32 37 -19 40 -28 4 -15 -34 13 -39 13 -26 -3 7 -8 7 -18
2 -27 -5 -8 -7 -23 -4 -34 4 -12 2 -16 -5 -12 -6 4 -11 15 -12 24 0 11 -3 12
-6 5 -8 -22 -23 -14 -23 11 0 14 -4 28 -10 31 -6 3 -7 -1 -4 -10 5 -11 2 -14
-11 -9 -17 7 -17 6 0 -19 9 -15 21 -27 26 -27 5 0 9 -7 9 -15 0 -8 6 -12 13
-10 12 5 54 -81 44 -91 -2 -3 -7 7 -11 21 -4 14 -13 25 -21 25 -19 0 -19 -5 1
-25 9 -9 14 -18 12 -21 -8 -7 -38 7 -33 16 2 4 -13 21 -34 38 l-39 32 14 -29
c8 -16 21 -34 29 -41 8 -7 15 -17 15 -23 0 -6 -14 2 -32 19 -18 16 -27 21 -20
12 12 -15 10 -66 -5 -108 -4 -12 -7 -11 -13 5 -7 18 -8 18 -15 -7 -4 -16 -11
-28 -17 -28 -5 0 -7 8 -4 18 2 9 1 35 -4 57 -7 38 -8 39 -9 8 0 -17 -6 -35
-13 -39 -8 -5 -9 0 -5 15 4 18 3 20 -9 10 -15 -12 -20 -40 -6 -38 4 1 14 1 22
0 12 -1 11 -4 -3 -18 -16 -16 -18 -16 -31 2 -7 11 -12 25 -9 32 3 7 1 13 -5
13 -6 0 -13 -6 -15 -12 -3 -7 -6 -1 -6 15 -1 26 18 40 20 15 0 -7 5 -2 10 12
8 20 12 22 19 10 5 -8 10 -10 10 -4 0 5 -9 20 -19 31 -20 21 -20 21 1 26 15 4
19 11 15 27 -7 26 14 68 31 62 11 -3 11 0 1 16 -12 19 -13 19 -28 -11 -10 -19
-24 -31 -38 -32 -32 -2 -37 -10 -23 -35 6 -12 9 -28 6 -36 -3 -8 -1 -14 4 -14
6 0 10 -7 10 -15 0 -8 -9 -15 -20 -15 -14 0 -18 5 -14 18 5 14 4 15 -5 2 -9
-12 -11 -13 -11 -1 0 8 -3 12 -6 9 -10 -11 35 -96 65 -120 30 -26 29 -42 -2
-44 -13 -2 -15 1 -7 11 7 9 6 16 -4 24 -15 13 -32 -1 -21 -18 3 -6 -2 -14 -11
-19 -11 -6 -13 -11 -5 -16 6 -4 11 -12 11 -18 0 -7 -6 -6 -15 2 -8 7 -15 16
-15 21 0 4 -5 20 -11 36 -10 26 -12 27 -19 8 -7 -17 -9 -17 -9 -3 -1 12 -6 15
-17 11 -13 -5 -11 -10 10 -32 31 -33 32 -37 5 -52 -15 -8 -19 -8 -15 0 4 6 2
19 -3 28 -9 16 -10 15 -11 -6 0 -20 -2 -21 -15 -11 -8 7 -25 10 -38 8 -17 -3
-23 0 -23 13 0 11 5 15 11 10 5 -4 21 -8 35 -9 23 -1 23 0 8 12 -10 7 -18 18
-18 25 0 8 -6 9 -17 3 -10 -5 -23 -7 -30 -5 -8 3 -11 -3 -8 -16 2 -12 0 -21
-6 -21 -5 0 -9 -8 -9 -17 0 -15 -2 -16 -10 -3 -6 10 -6 16 0 18 6 2 9 18 9 35
-1 18 -3 24 -6 14 -4 -14 -8 -16 -19 -6 -11 9 -14 8 -14 -5 0 -9 5 -16 10 -16
6 0 10 -5 10 -11 0 -5 -4 -8 -8 -5 -5 3 -6 -9 -4 -26 4 -26 2 -30 -13 -25 -21
9 -42 -2 -25 -13 8 -5 8 -10 2 -14 -5 -3 -15 1 -22 9 -9 11 -10 15 -1 15 8 0
10 8 6 23 -5 17 -4 19 4 7 8 -11 11 -12 11 -2 0 22 -20 53 -31 47 -5 -4 -6
-12 -2 -18 4 -7 -16 5 -45 26 -29 20 -55 37 -59 37 -4 0 1 -6 12 -13 11 -9 15
-19 10 -27 -5 -9 -2 -10 12 -6 13 4 27 -2 41 -17 21 -22 21 -26 9 -62 -8 -23
-16 -34 -21 -27 -4 6 -2 21 4 33 7 11 9 23 7 26 -3 2 -8 -5 -12 -16 -3 -12
-11 -21 -16 -21 -6 0 -8 8 -4 19 3 10 3 25 -1 34 -5 14 -7 14 -25 -1 -10 -9
-19 -21 -19 -27 0 -5 4 -4 9 4 7 11 14 5 28 -27 10 -23 21 -42 25 -42 4 0 5
-7 2 -15 -9 -24 -22 -18 -29 14 -3 16 -13 35 -21 42 -12 10 -13 9 -8 -7 3 -10
-12 1 -36 26 -23 25 -34 34 -26 20 9 -13 16 -32 16 -42 0 -10 3 -17 8 -16 4 0
18 -4 32 -10 l25 -11 -28 0 c-16 -1 -26 -5 -22 -11 4 -6 11 -8 16 -5 5 4 17 1
26 -5 16 -9 15 -10 -4 -5 -24 7 -33 -9 -10 -18 6 -3 8 -6 2 -6 -16 -1 -30 12
-53 52 -12 20 -17 37 -11 37 6 0 7 5 3 11 -5 8 -9 8 -14 -1 -14 -22 -49 0 -86
56 -20 30 -40 54 -45 54 -16 0 -10 -14 17 -43 14 -16 23 -31 20 -35 -4 -3 -20
9 -36 26 -32 36 -56 40 -77 15 -13 -17 -13 -16 -7 6 4 16 3 21 -5 17 -6 -4
-11 -15 -11 -24 0 -11 -3 -13 -11 -5 -8 8 -4 22 14 49 37 59 41 81 18 89 -13
4 -18 12 -14 28 3 15 -1 12 -10 -8 l-14 -30 -13 28 c-7 15 -17 27 -22 27 -5 0
-6 9 -3 20 4 11 2 20 -4 20 -14 0 -14 -21 -1 -55 7 -19 7 -24 -2 -19 -8 5 -9
-3 -5 -29 3 -21 2 -37 -4 -37 -5 0 -9 -5 -9 -11 0 -5 5 -7 12 -3 8 5 9 2 5
-10 -4 -10 -7 -27 -7 -37 0 -13 -4 -18 -12 -13 -6 4 -8 3 -5 -3 4 -6 1 -13 -6
-16 -11 -4 -13 5 -10 36 4 50 -11 81 -28 57 -8 -11 -9 -9 -3 10 4 14 8 32 9
40 0 9 5 22 10 29 6 11 4 13 -10 7 -18 -6 -18 -6 -2 12 24 27 21 39 -5 16 -21
-19 -21 -19 -14 0 5 15 4 17 -7 8 -8 -7 -17 -9 -21 -5 -4 4 -4 0 -1 -9 4 -9 2
-19 -4 -23 -6 -3 -11 -1 -11 5 0 6 -4 9 -10 5 -5 -3 -7 8 -5 28 4 28 1 33 -14
32 -11 -1 -27 -8 -37 -16 -15 -12 -17 -12 -13 0 7 21 60 46 89 42 13 -2 13 0
1 8 -10 6 -22 6 -34 -1 -17 -9 -19 -8 -13 8 5 13 -2 10 -23 -10 -17 -17 -31
-35 -31 -42 0 -7 -4 -15 -9 -18 -7 -5 -8 9 -2 71 1 6 13 25 27 42 28 34 23 42
-9 14 -19 -18 -20 -17 -8 5 7 13 19 26 26 29 12 4 12 8 -2 21 -9 10 -20 17
-25 17 -4 0 -7 5 -5 10 1 6 5 9 9 8 4 -2 5 4 2 11 -3 9 -12 12 -21 9 -13 -5
-15 -2 -11 15 4 12 3 22 -2 22 -4 0 -10 7 -13 14 -4 10 -1 13 9 9 23 -9 16 7
-17 38 l-31 29 6 -27 7 -28 -26 29 c-26 31 -35 15 -10 -18 11 -14 12 -24 4
-38 -13 -23 -2 -39 11 -18 6 10 10 11 10 3 0 -7 -9 -17 -19 -22 -15 -8 -20 -7
-25 6 -4 9 -3 19 1 22 14 10 12 46 -3 54 -8 4 -14 17 -14 27 0 25 -15 33 -29
16 -8 -9 -8 -16 -2 -20 12 -8 3 -36 -10 -36 -5 0 -9 16 -9 35 0 19 5 35 10 35
6 0 10 7 10 15 0 13 -4 14 -20 5 -23 -12 -22 -13 -25 54 -1 28 -6 51 -12 53
-6 2 -9 14 -7 26 2 12 -1 6 -8 -13 -15 -45 -17 -47 -28 -30 -5 8 -6 26 -3 41
3 15 0 30 -6 33 -6 4 -11 19 -11 33 0 21 -3 23 -14 13 -8 -6 -12 -18 -9 -26 3
-7 -2 -17 -11 -20 -14 -5 -14 -9 -4 -22 11 -13 10 -14 -9 -3 -24 12 -33 -2
-10 -16 7 -4 18 -27 25 -49 15 -53 15 -59 -2 -45 -7 6 -13 23 -13 37 0 15 -4
29 -9 33 -5 3 -15 17 -22 30 -11 18 -11 25 -2 31 9 5 9 9 1 14 -6 4 -11 14
-11 22 0 8 5 12 10 9 6 -3 10 2 10 12 0 15 2 16 10 3 8 -12 10 -11 10 7 0 12
4 24 9 27 8 6 7 53 -2 63 -3 2 -8 -9 -12 -26 -4 -17 -11 -34 -17 -37 -6 -4 -8
4 -4 22 3 16 2 36 -4 44 -7 11 -10 5 -11 -25 -1 -22 -1 -45 0 -51 1 -7 -6 -14
-14 -18 -10 -3 -13 -2 -10 5 4 5 1 17 -6 25 -6 8 -9 18 -5 21 4 4 12 1 17 -7
9 -12 10 -12 5 3 -3 10 -6 30 -6 43 0 28 -16 32 -23 7 -3 -12 -5 -8 -6 9 0 15
-6 30 -12 34 -6 3 -9 19 -5 34 4 24 1 29 -20 33 -20 4 -23 1 -19 -14 4 -11 2
-19 -5 -19 -13 0 -9 -28 12 -77 11 -26 18 -113 9 -113 -2 0 -10 8 -18 18 -12
15 -13 14 -2 -8 14 -27 19 -44 24 -75 1 -11 6 -28 10 -38 4 -11 3 -23 -4 -30
-14 -14 -15 -41 -1 -32 5 3 10 -1 10 -11 0 -14 2 -15 17 -3 15 13 15 12 5 -7
-6 -11 -18 -26 -26 -33 -9 -8 -13 -18 -9 -24 3 -6 1 -7 -5 -3 -7 4 -12 1 -12
-10 0 -13 -3 -14 -15 -4 -12 10 -15 9 -15 -8 0 -11 4 -22 8 -24 4 -1 18 -20
31 -40 12 -21 29 -38 37 -38 7 0 16 -12 19 -27 8 -37 19 -56 30 -55 16 1 55
-40 54 -57 0 -11 -3 -10 -9 4 -4 12 -16 27 -26 35 -16 14 -17 13 -10 -5 4 -11
15 -40 23 -65 9 -25 22 -64 30 -87 8 -24 19 -43 24 -43 6 0 7 -5 4 -11 -15
-23 7 -100 36 -134 18 -20 30 -44 29 -57 -3 -30 10 -68 22 -68 5 0 6 -9 3 -20
-5 -17 -2 -20 20 -20 l27 0 -27 31 c-14 17 -24 36 -23 41 8 24 26 8 55 -51 25
-49 30 -67 20 -73 -8 -6 -9 -10 -1 -15 6 -5 13 -16 17 -26 3 -9 13 -17 22 -17
13 0 15 -8 11 -40 -5 -46 11 -61 59 -55 59 6 76 -19 20 -29 -19 -4 -35 -11
-35 -16 0 -13 14 -12 28 2 8 8 15 8 26 -1 18 -15 36 -7 37 17 0 14 2 13 9 -3
4 -11 4 -24 -1 -29 -16 -18 -9 -25 21 -21 20 2 30 -1 30 -9 0 -8 9 -12 24 -9
29 6 45 -26 22 -43 -23 -16 -19 -25 7 -16 33 11 116 7 175 -8 55 -15 67 -27
30 -32 -22 -3 -21 -4 9 -26 32 -23 66 -21 56 4 -3 8 0 14 7 14 6 0 8 5 5 10
-9 14 1 13 35 -5 15 -8 46 -14 67 -12 28 1 38 -2 38 -13 0 -11 -9 -14 -30 -12
l-30 3 23 -16 c21 -15 24 -15 48 4 15 12 33 21 40 21 8 0 14 5 14 10 0 6 7 10
17 10 14 0 14 -2 -2 -20 -18 -20 -18 -21 0 -14 13 5 16 4 11 -4 -4 -7 -2 -12
3 -12 6 0 11 4 11 9 0 5 9 7 20 4 15 -4 19 -2 15 10 -4 8 1 17 10 21 13 5 15
1 10 -15 -7 -20 -6 -20 32 -3 21 9 49 19 63 23 33 8 70 33 70 47 0 6 15 17 33
25 17 7 35 18 39 23 5 7 8 5 8 -5 0 -19 -34 -52 -44 -42 -8 8 -26 -15 -26 -33
0 -7 9 -14 20 -17 11 -3 18 0 17 7 -1 6 9 11 23 11 32 1 70 14 67 23 -1 4 7
17 18 29 18 19 26 21 60 13 22 -5 48 -7 58 -4 10 3 25 0 33 -7 12 -9 13 -9 9
3 -4 9 6 20 27 31 l33 17 -40 -6 c-22 -3 -44 -11 -48 -17 -5 -7 -6 -4 -2 8 4
11 8 25 8 30 0 6 19 9 41 8 23 -2 35 0 28 3 -18 8 -5 24 21 24 16 0 18 3 9 12
-28 28 2 57 39 38 13 -7 19 -7 19 0 0 5 5 10 11 10 5 0 7 -4 4 -10 -3 -5 1
-10 9 -10 9 0 15 6 13 12 -1 9 15 13 58 13 47 0 60 3 60 15 0 19 -23 20 -52 2
-14 -9 -23 -10 -28 -2 -3 5 0 13 8 16 16 6 30 38 28 64 0 9 2 10 5 3 3 -7 12
-9 20 -6 8 3 14 -1 14 -10 0 -8 7 -18 16 -21 24 -9 31 -7 14 4 -13 8 -12 10 3
10 9 0 17 -4 17 -10 0 -5 10 -10 23 -9 l22 0 -22 9 c-13 5 -23 14 -23 20 0 6
-4 8 -10 5 -5 -3 -10 -2 -10 2 0 5 9 14 20 21 11 7 20 18 20 26 0 19 30 42 51
38 14 -2 17 1 13 12 -4 11 0 16 11 16 14 0 15 3 5 15 -13 15 -5 39 11 30 5 -4
9 -15 9 -26 0 -10 5 -19 10 -19 6 0 10 7 10 15 0 9 6 12 15 9 11 -5 13 -2 9
10 -3 9 -12 16 -19 16 -7 0 -15 7 -18 15 -5 11 -1 12 20 4 22 -8 30 -6 46 10
17 16 18 24 9 49 -9 26 -8 30 4 25 8 -3 14 -11 14 -19 0 -14 38 -39 47 -31 3
3 -4 11 -15 18 -16 10 -18 17 -11 31 5 10 16 18 24 18 13 0 18 15 17 50 0 3
-3 15 -7 27 -5 17 -3 22 8 17 9 -3 16 2 19 13 6 22 47 28 55 7 6 -17 37 -19
30 -1 -2 6 2 19 10 29 12 13 12 20 2 36 -12 20 -13 20 -31 -2 -18 -20 -18 -20
-1 11 14 24 23 31 37 27 16 -5 18 -2 12 19 -4 16 -1 27 6 29 8 3 5 12 -9 27
-24 26 -21 60 3 40 8 -6 11 -15 8 -20 -3 -5 -1 -9 5 -9 18 0 23 39 7 62 -21
30 -22 55 -2 38 12 -9 16 -6 20 22 12 74 12 98 2 103 -7 3 -7 7 2 11 6 3 12
19 12 34 0 16 6 33 14 37 16 9 23 59 11 86 -4 11 -3 23 4 30 6 6 11 7 11 3 0
-5 7 -3 15 4 17 14 20 53 5 80 -8 14 -6 21 4 27 12 7 12 12 1 33 -13 24 -13
24 -25 -20 -9 -32 -14 -40 -21 -29 -5 8 -8 21 -8 29 0 10 3 8 8 -5 7 -16 9
-13 12 16 4 28 0 40 -13 48 -18 11 -22 4 -21 -36 0 -6 -6 -9 -14 -6 -8 3 -12
11 -9 19 3 7 0 14 -6 16 -7 3 -9 12 -4 24 6 13 10 15 13 6 4 -10 8 -10 19 -1
16 13 19 33 4 24 -5 -3 -9 2 -8 12 2 32 -2 54 -9 50 -5 -3 -8 12 -8 33 -1 21
-7 50 -15 64 -12 23 -11 28 4 45 17 19 17 20 -3 31 -17 9 -21 8 -21 -5 0 -9
-5 -13 -10 -10 -6 4 -9 14 -8 22 2 9 -2 18 -8 20 -7 2 -10 -6 -6 -22z m43
-119 c-11 -14 -8 -51 7 -68 7 -9 8 -19 2 -28 -6 -8 -10 -12 -11 -7 -1 4 -2 10
-3 15 -1 4 -5 12 -9 19 -4 6 -4 19 0 29 4 12 3 15 -5 10 -7 -4 -12 -3 -12 3 0
5 4 12 9 15 5 3 7 16 3 29 -5 20 -4 21 11 8 11 -8 14 -18 8 -25z m-105 -81 c6
-23 0 -45 -10 -34 -10 12 -15 59 -6 59 5 0 12 -11 16 -25z m-26 -11 c0 -8 -4
-12 -10 -9 -5 3 -10 10 -10 16 0 5 5 9 10 9 6 0 10 -7 10 -16z m76 -19 c8 -7
9 -14 2 -22 -13 -16 -34 -6 -34 17 0 20 12 22 32 5z m-64 -93 c-7 -22 -19 -45
-27 -52 -20 -17 -19 -1 1 22 14 15 15 20 3 35 -12 15 -12 16 4 10 15 -5 16 -2
11 21 -5 22 -4 25 6 15 11 -10 11 -20 2 -51z m73 28 c3 -5 2 -10 -4 -10 -5 0
-13 5 -16 10 -3 6 -2 10 4 10 5 0 13 -4 16 -10z m-15 -31 c0 -5 -4 -9 -10 -9
-5 0 -10 7 -10 16 0 8 5 12 10 9 6 -3 10 -10 10 -16z m-118 -52 c-10 -26 -26
-55 -35 -64 -16 -16 -17 -16 -17 0 0 9 5 17 10 17 6 0 15 12 20 28 14 36 33
73 36 69 2 -2 -5 -24 -14 -50z m228 -2 c0 -5 -5 -3 -10 5 -5 8 -10 20 -10 25
0 6 5 3 10 -5 5 -8 10 -19 10 -25z m-30 15 c0 -5 -5 -10 -11 -10 -5 0 -7 5 -4
10 3 6 8 10 11 10 2 0 4 -4 4 -10z m-2438 -52 c-8 -8 -12 -9 -12 -1 0 6 -3 20
-6 30 -7 17 -6 17 12 1 14 -14 16 -20 6 -30z m2365 20 c-3 -8 -6 -5 -6 6 -1
11 2 17 5 13 3 -3 4 -12 1 -19z m-76 -28 c3 -8 2 -28 -2 -43 -4 -16 -5 -35 -2
-43 3 -8 0 -14 -6 -14 -6 0 -11 9 -11 19 0 27 -17 35 -29 14 -5 -10 -13 -14
-18 -9 -4 5 -2 11 5 13 6 3 12 13 12 23 0 9 7 23 15 30 8 7 12 16 9 21 -3 5 0
8 8 7 7 -2 16 -10 19 -18z m-114 -22 c-3 -8 -6 -5 -6 6 -1 11 2 17 5 13 3 -3
4 -12 1 -19z m243 12 c0 -5 -4 -10 -10 -10 -5 0 -10 5 -10 10 0 6 5 10 10 10
6 0 10 -4 10 -10z m-70 -24 c0 -3 -4 -8 -10 -11 -5 -3 -10 -1 -10 4 0 6 5 11
10 11 6 0 10 -2 10 -4z m-260 -13 c0 -5 -7 -16 -14 -26 -13 -16 -14 -16 -20
-1 -4 10 -1 21 6 26 16 10 28 10 28 1z m-2038 -41 c3 -11 0 -19 -8 -19 -16 0
-16 0 -8 21 8 21 11 20 16 -2z m2375 -4 c-3 -8 -6 -5 -6 6 -1 11 2 17 5 13 3
-3 4 -12 1 -19z m-2407 -14 c0 -8 -5 -12 -10 -9 -6 4 -8 11 -5 16 9 14 15 11
15 -7z m2150 -18 c0 -5 -7 -3 -15 4 -8 7 -12 17 -9 22 7 10 24 -9 24 -26z m40
-1 c0 -8 -4 -15 -10 -15 -5 0 -10 7 -10 15 0 8 5 15 10 15 6 0 10 -7 10 -15z
m68 -10 c-12 -14 -23 -25 -25 -25 -9 0 -1 20 13 34 25 26 36 18 12 -9z m-2217
-33 c-5 -8 -6 -24 -4 -36 4 -21 4 -21 -11 -2 -9 12 -12 22 -7 26 6 3 6 11 1
19 -4 8 -6 21 -2 29 4 12 7 12 18 -3 8 -11 10 -24 5 -33z m115 13 c-3 -8 -9
-22 -12 -30 -3 -8 -1 -15 5 -15 5 0 15 -10 22 -22 l11 -23 -23 23 c-27 25 -34
82 -10 82 8 0 11 -6 7 -15z m21 -27 c-3 -8 -6 -5 -6 6 -1 11 2 17 5 13 3 -3 4
-12 1 -19z m-87 2 c0 -5 -8 -10 -17 -10 -15 0 -16 2 -3 10 19 12 20 12 20 0z
m30 -40 c0 -5 -4 -10 -10 -10 -5 0 -10 5 -10 10 0 6 5 10 10 10 6 0 10 -4 10
-10z m1948 -10 c-7 -11 -17 -20 -22 -20 -5 0 -1 9 9 20 10 11 20 20 22 20 2 0
-2 -9 -9 -20z m195 -25 c-3 -9 -8 -14 -10 -11 -3 3 -2 9 2 15 9 16 15 13 8 -4z
m-2263 -21 c0 -2 -9 0 -20 6 -11 6 -20 13 -20 16 0 2 9 0 20 -6 11 -6 20 -13
20 -16z m170 12 c0 -24 -17 -28 -23 -6 -3 13 0 20 9 20 8 0 14 -6 14 -14z m38
-3 c-2 -9 -10 -18 -18 -20 -12 -4 -13 -3 -1 5 7 5 10 15 7 21 -4 6 -2 11 4 11
6 0 10 -8 8 -17z m2172 0 c0 -14 -19 -38 -25 -32 -8 8 5 39 16 39 5 0 9 -3 9
-7z m-2417 -23 c3 -11 1 -18 -4 -14 -5 3 -9 12 -9 20 0 20 7 17 13 -6z m117
-25 c0 -5 -5 -3 -10 5 -5 8 -10 20 -10 25 0 6 5 3 10 -5 5 -8 10 -19 10 -25z
m52 8 c-3 -16 -7 -22 -10 -15 -4 13 4 42 11 42 2 0 2 -12 -1 -27z m-128 -8 c3
-8 1 -15 -3 -15 -5 0 -11 7 -15 15 -3 8 -1 15 3 15 5 0 11 -7 15 -15z m197 2
c-6 -8 -7 -18 -3 -22 4 -5 2 -5 -5 -1 -14 8 -6 36 9 36 7 0 6 -5 -1 -13z m-54
-29 c-3 -7 -5 -2 -5 12 0 14 2 19 5 13 2 -7 2 -19 0 -25z m2074 -15 c-12 -20
-14 -14 -5 12 4 9 9 14 11 11 3 -2 0 -13 -6 -23z m-2142 -33 c0 -11 -3 -10
-14 4 -8 11 -15 27 -15 35 0 11 4 10 15 -5 8 -10 14 -26 14 -34z m108 18 c-3
-8 -6 -5 -6 6 -1 11 2 17 5 13 3 -3 4 -12 1 -19z m198 4 c3 -8 3 -17 0 -20 -5
-6 -35 17 -35 28 0 13 29 7 35 -8z m-235 -23 c0 -11 -4 -18 -10 -14 -5 3 -7
12 -3 20 7 21 13 19 13 -6z m100 1 c0 -5 -5 -10 -11 -10 -5 0 -7 -5 -4 -10 4
-6 12 -7 18 -3 7 3 5 -2 -4 -13 -10 -10 -19 -28 -22 -39 -3 -12 -5 -5 -6 17 0
20 2 43 5 52 7 18 24 22 24 6z m76 -32 c9 -18 21 -36 27 -40 13 -8 10 -99 -3
-112 -5 -5 -8 11 -6 43 1 34 -3 61 -14 79 -19 32 -31 62 -25 62 2 0 12 -15 21
-32z m1499 22 c3 -5 1 -10 -4 -10 -6 0 -11 5 -11 10 0 6 2 10 4 10 3 0 8 -4
11 -10z m-1785 -16 c0 -8 -4 -12 -10 -9 -5 3 -10 10 -10 16 0 5 5 9 10 9 6 0
10 -7 10 -16z m369 -44 c0 -11 -3 -10 -14 4 -8 11 -15 27 -15 35 0 11 4 10 15
-5 8 -10 14 -26 14 -34z m1533 28 c-7 -7 -12 -8 -12 -2 0 14 12 26 19 19 2 -3
-1 -11 -7 -17z m-1832 -42 c0 -16 -28 15 -34 37 -5 21 -4 21 14 -3 11 -14 20
-29 20 -34z m50 44 c0 -5 -5 -10 -11 -10 -5 0 -7 5 -4 10 3 6 8 10 11 10 2 0
4 -4 4 -10z m1972 -22 c-7 -7 -12 -8 -12 -2 0 14 12 26 19 19 2 -3 -1 -11 -7
-17z m-82 2 c0 -5 -5 -10 -11 -10 -5 0 -7 5 -4 10 3 6 8 10 11 10 2 0 4 -4 4
-10z m-1764 -22 c4 -7 3 -8 -4 -4 -7 4 -12 2 -12 -4 0 -6 -5 -8 -10 -5 -11 7
-4 25 10 25 5 0 12 -5 16 -12z m1554 8 c0 -3 -4 -8 -10 -11 -5 -3 -10 -1 -10
4 0 6 5 11 10 11 6 0 10 -2 10 -4z m-108 -71 c11 -20 11 -20 -11 -1 -27 24
-27 13 0 -30 12 -19 16 -34 10 -34 -7 0 -14 7 -18 16 -3 8 -11 13 -18 10 -15
-5 -14 51 0 74 8 13 12 9 37 -35z m39 -2 c-9 -16 -10 -16 -11 -1 0 9 -3 18 -7
21 -5 2 -2 2 5 1 6 -2 13 4 13 14 1 16 2 16 6 0 2 -10 0 -25 -6 -35z m326 15
c-3 -8 -6 -5 -6 6 -1 11 2 17 5 13 3 -3 4 -12 1 -19z m-1868 -28 c0 -10 -3 -8
-9 5 -12 27 -12 43 0 25 5 -8 9 -22 9 -30z m2148 23 c2 -6 -6 -13 -19 -15 -13
-2 -22 -9 -20 -16 1 -6 -2 -12 -8 -12 -16 0 -11 32 8 46 19 15 34 14 39 -3z
m-2212 -33 c17 -33 20 -55 4 -26 -8 13 -14 15 -19 7 -3 -7 -7 2 -7 19 0 37 3
37 22 0z m-31 -50 l6 -35 -15 30 c-16 34 -20 64 -6 50 5 -6 12 -26 15 -45z
m253 28 c-3 -8 -6 -5 -6 6 -1 11 2 17 5 13 3 -3 4 -12 1 -19z m1900 -20 c-3
-8 -6 -5 -6 6 -1 11 2 17 5 13 3 -3 4 -12 1 -19z m-1807 -18 c-11 -20 -30 -28
-30 -12 0 11 22 32 32 32 5 0 4 -9 -2 -20z m1370 0 c0 -5 -2 -10 -4 -10 -3 0
-8 5 -11 10 -3 6 -1 10 4 10 6 0 11 -4 11 -10z m414 -6 c3 -8 2 -12 -4 -9 -6
3 -10 10 -10 16 0 14 7 11 14 -7z m-1714 -69 c-20 -22 -18 -52 6 -90 17 -27
21 -59 9 -65 -6 -3 -11 11 -13 30 -2 19 -13 45 -24 56 -22 25 -21 62 2 81 9 8
11 12 3 13 -6 0 -19 -7 -27 -16 -9 -8 -16 -11 -16 -5 0 6 12 22 27 35 l27 26
13 -23 c10 -18 8 -25 -7 -42z m1214 26 c-6 -6 -24 19 -24 34 1 6 7 1 15 -9 8
-11 12 -22 9 -25z m-1314 -8 c0 -19 -3 -24 -10 -17 -6 6 -8 18 -4 27 9 24 14
21 14 -10z m-67 -8 c-3 -9 -8 -14 -10 -11 -3 3 -2 9 2 15 9 16 15 13 8 -4z
m337 -4 c0 -6 -4 -13 -10 -16 -5 -3 -10 1 -10 9 0 9 5 16 10 16 6 0 10 -4 10
-9z m-42 -13 c15 -15 16 -32 2 -23 -5 3 -10 1 -10 -4 0 -6 4 -11 9 -11 5 0 7
-9 4 -21 -8 -29 -23 -10 -26 34 -4 39 1 45 21 25z m1522 -21 c0 -5 -4 -5 -10
-2 -5 3 -10 14 -10 23 0 15 2 15 10 2 5 -8 10 -19 10 -23z m-1870 13 c0 -5 -7
-7 -15 -4 -8 4 -15 8 -15 10 0 2 7 4 15 4 8 0 15 -4 15 -10z m80 -28 c0 -21
-2 -24 -10 -12 -13 20 -13 53 0 45 6 -3 10 -18 10 -33z m55 18 c3 -5 1 -10 -4
-10 -6 0 -11 5 -11 10 0 6 2 10 4 10 3 0 8 -4 11 -10z m34 -32 c-1 -24 3 -54
10 -66 7 -13 10 -26 7 -29 -3 -3 -11 6 -17 21 -9 18 -16 23 -24 16 -12 -10
-25 -4 -25 11 0 5 7 6 15 3 15 -6 20 9 17 46 -2 19 5 40 13 40 4 0 5 -19 4
-42z m1230 -27 c-10 -65 -19 -78 -19 -28 0 31 19 92 26 85 1 -2 -2 -27 -7 -57z
m-1293 9 c0 -12 -4 -16 -9 -11 -5 5 -6 14 -3 20 10 15 12 14 12 -9z m1134 -9
c0 -6 -4 -13 -10 -16 -5 -3 -10 1 -10 9 0 9 5 16 10 16 6 0 10 -4 10 -9z
m-910 -11 c0 -5 -4 -10 -10 -10 -5 0 -10 5 -10 10 0 6 5 10 10 10 6 0 10 -4
10 -10z m122 -46 c5 -8 3 -14 -8 -18 -12 -4 -15 -2 -11 9 4 8 2 17 -4 20 -5 4
-6 11 -2 18 5 8 8 7 11 -3 3 -8 9 -20 14 -26z m815 14 c-3 -8 -6 -5 -6 6 -1
11 2 17 5 13 3 -3 4 -12 1 -19z m570 0 c-3 -8 -6 -5 -6 6 -1 11 2 17 5 13 3
-3 4 -12 1 -19z m-1518 5 c0 -5 -4 -17 -9 -28 -8 -18 -9 -17 -9 8 -1 15 4 27
9 27 6 0 10 -3 9 -7z m992 -20 c-12 -20 -14 -14 -5 12 4 9 9 14 11 11 3 -2 0
-13 -6 -23z m-71 2 c0 -8 -4 -15 -10 -15 -5 0 -10 7 -10 15 0 8 5 15 10 15 6
0 10 -7 10 -15z m-895 -5 c3 -5 2 -10 -4 -10 -6 0 -8 -8 -5 -17 5 -15 4 -16
-5 -3 -6 8 -11 21 -11 28 0 14 16 16 25 2z m22 -12 c-3 -8 -6 -5 -6 6 -1 11 2
17 5 13 3 -3 4 -12 1 -19z m-257 3 c0 -6 -4 -13 -10 -16 -5 -3 -10 1 -10 9 0
9 5 16 10 16 6 0 10 -4 10 -9z m399 -50 c7 -12 10 -25 7 -29 -3 -3 -6 -1 -6 5
0 5 -9 20 -20 33 -11 13 -20 27 -20 32 0 13 24 -12 39 -41z m1217 22 c-10 -10
-19 5 -10 18 6 11 8 11 12 0 2 -7 1 -15 -2 -18z m-1198 -8 c-3 -3 -9 2 -12 12
-6 14 -5 15 5 6 7 -7 10 -15 7 -18z m422 15 c0 -5 -4 -10 -10 -10 -5 0 -10 5
-10 10 0 6 5 10 10 10 6 0 10 -4 10 -10z m-689 -27 c-12 -20 -14 -14 -5 12 4
9 9 14 11 11 3 -2 0 -13 -6 -23z m737 9 c2 -8 -3 -10 -15 -5 -16 6 -16 5 -4
-10 7 -10 9 -17 3 -17 -13 0 -21 21 -14 38 5 15 24 11 30 -6z m-908 -7 c0 -8
-4 -15 -10 -15 -5 0 -7 7 -4 15 4 8 8 15 10 15 2 0 4 -7 4 -15z m460 -24 c-12
-24 -13 -31 -1 -31 5 0 12 11 15 25 7 29 21 32 30 8 4 -10 4 -14 -1 -10 -4 4
-15 -7 -25 -25 -9 -18 -17 -27 -18 -20 0 6 -7 12 -14 12 -12 0 -13 6 -5 30 6
17 15 30 20 30 6 0 5 -8 -1 -19z m-326 -53 c4 -17 2 -28 -4 -28 -5 0 -10 10
-10 23 0 12 -4 29 -9 37 -6 8 -7 18 -4 24 6 10 15 -9 27 -56z m-46 21 c-3 -8
-7 -3 -11 10 -4 17 -3 21 5 13 5 -5 8 -16 6 -23z m347 -19 c8 0 15 -7 15 -15
0 -8 -2 -15 -5 -15 -12 0 -54 56 -54 70 0 8 7 3 15 -12 8 -16 21 -28 29 -28z
m295 20 c-9 -6 -9 -9 1 -13 8 -3 3 -6 -10 -6 -18 -1 -21 2 -12 12 6 8 8 17 4
21 -4 4 1 4 11 0 12 -5 14 -9 6 -14z m190 10 c-18 -12 -43 -13 -36 -2 2 4 15
8 28 9 18 2 19 0 8 -7z m-350 -62 c0 -17 -27 4 -45 35 l-18 32 32 -29 c17 -17
31 -33 31 -38z m-520 42 c-8 -5 -19 -10 -25 -10 -5 0 -3 5 5 10 8 5 20 10 25
10 6 0 3 -5 -5 -10z m170 6 c0 -3 -4 -8 -10 -11 -5 -3 -10 -1 -10 4 0 6 5 11
10 11 6 0 10 -2 10 -4z m1370 -4 c0 -4 -12 -24 -26 -43 -15 -19 -24 -26 -21
-17 5 14 1 16 -23 13 -35 -4 -46 7 -25 25 8 7 15 9 15 5 0 -4 6 -2 14 4 7 6
20 9 29 5 8 -3 18 -1 22 5 7 13 15 14 15 3z m-622 -37 c-10 -23 -28 -34 -28
-18 0 7 31 43 36 43 2 0 -2 -11 -8 -25z m-109 -44 c-15 -33 -24 -38 -35 -19
-4 6 -3 8 3 5 6 -4 16 7 22 25 6 17 14 29 17 25 3 -3 0 -20 -7 -36z m-919 19
c0 -5 -4 -10 -10 -10 -5 0 -10 5 -10 10 0 6 5 10 10 10 6 0 10 -4 10 -10z
m1515 -30 c-2 -26 -35 -63 -35 -39 0 13 26 59 34 59 1 0 2 -9 1 -20z m-1508
-12 c-3 -8 -6 -5 -6 6 -1 11 2 17 5 13 3 -3 4 -12 1 -19z m1452 -33 c-20 -34
-39 -46 -39 -25 0 6 5 10 12 10 6 0 8 3 5 7 -8 7 21 43 34 43 5 0 -1 -16 -12
-35z m-1422 -21 c2 -5 -3 -18 -11 -29 -12 -17 -15 -18 -30 -3 -15 15 -15 18 0
33 17 16 35 16 41 -1z m1303 -74 c0 -5 -7 -10 -15 -10 -8 0 -15 -7 -15 -15 0
-8 -5 -15 -11 -15 -5 0 -7 4 -4 10 3 5 0 7 -8 4 -8 -3 -19 1 -25 9 -10 11 -5
14 25 15 19 1 38 4 41 7 8 8 12 6 12 -5z m-1184 -38 c-18 -16 -18 -16 -6 6 6
13 14 21 18 18 3 -4 -2 -14 -12 -24z m1004 -13 c0 -5 -4 -9 -10 -9 -5 0 -10 7
-10 16 0 8 5 12 10 9 6 -3 10 -10 10 -16z m70 11 c0 -5 -4 -10 -10 -10 -5 0
-10 5 -10 10 0 6 5 10 10 10 6 0 10 -4 10 -10z m10 -50 c0 -5 -7 -10 -15 -10
-8 0 -15 5 -15 10 0 6 7 10 15 10 8 0 15 -4 15 -10z m-140 -20 c0 -5 -5 -10
-11 -10 -5 0 -7 5 -4 10 3 6 8 10 11 10 2 0 4 -4 4 -10z m-10 -41 c0 -5 -4 -9
-10 -9 -5 0 -10 7 -10 16 0 8 5 12 10 9 6 -3 10 -10 10 -16z"/>
<path d="M4404 2409 c-3 -6 0 -18 9 -26 13 -13 15 -12 15 11 0 27 -12 34 -24
15z"/>
<path d="M1673 2399 c-6 -6 -9 -17 -6 -24 2 -7 -3 -27 -12 -44 -9 -17 -11 -31
-5 -31 5 0 10 -9 10 -20 0 -11 -4 -20 -10 -20 -5 0 -7 -7 -4 -15 7 -18 26 -20
22 -2 -1 6 6 28 16 47 10 19 12 29 5 23 -23 -23 -30 -14 -14 17 9 17 13 35 10
39 -3 5 -1 11 5 13 5 1 6 9 2 15 -6 10 -11 10 -19 2z"/>
<path d="M2465 2391 c3 -6 -4 -15 -15 -21 -11 -6 -27 -25 -36 -43 -15 -31 -14
-31 20 8 19 22 35 34 36 26 0 -11 3 -11 15 -1 12 10 13 16 4 26 -13 16 -33 19
-24 5z"/>
<path d="M3590 2393 c0 -3 13 -20 29 -38 23 -27 30 -30 33 -17 3 11 -7 25 -29
39 -18 12 -33 20 -33 16z"/>
<path d="M2975 2380 c3 -5 8 -10 11 -10 2 0 4 5 4 10 0 6 -5 10 -11 10 -5 0
-7 -4 -4 -10z"/>
<path d="M2955 2359 c-9 -14 -2 -20 14 -10 8 6 9 11 3 15 -6 3 -14 1 -17 -5z"/>
<path d="M2490 2345 c-8 -9 -8 -15 -2 -15 12 0 26 19 19 26 -2 2 -10 -2 -17
-11z"/>
<path d="M2840 2351 c0 -6 5 -11 11 -11 6 0 9 -9 6 -20 -3 -11 -1 -20 5 -20
14 0 5 53 -9 58 -7 2 -13 -1 -13 -7z"/>
<path d="M1630 2334 c0 -8 5 -12 10 -9 6 3 10 10 10 16 0 5 -4 9 -10 9 -5 0
-10 -7 -10 -16z"/>
<path d="M2370 2315 c-19 -19 -29 -35 -24 -35 11 0 45 34 58 58 12 21 1 14
-34 -23z"/>
<path d="M3140 2341 c0 -7 -5 -9 -12 -5 -8 4 -10 3 -5 -2 5 -5 14 -9 20 -9 7
0 13 -10 15 -22 4 -28 17 -30 19 -4 1 11 -7 27 -18 37 -12 11 -19 13 -19 5z"/>
<path d="M3217 2341 c6 -7 9 -20 6 -27 -3 -8 -1 -14 3 -14 5 0 10 -16 12 -36
2 -30 -1 -35 -14 -30 -14 6 -15 4 -4 -10 12 -14 15 -13 27 11 12 21 12 32 1
61 -7 19 -19 40 -28 47 -12 9 -13 9 -3 -2z"/>
<path d="M1710 2303 c-8 -21 -16 -41 -18 -46 -2 -4 3 -4 11 -1 10 4 16 -4 20
-28 8 -54 1 -119 -13 -128 -7 -4 -9 -13 -6 -19 4 -6 12 -9 17 -6 5 4 9 -3 9
-14 0 -12 7 -21 15 -21 9 0 12 -6 9 -17 -5 -17 -5 -17 6 -1 8 13 7 25 -5 49
-15 27 -15 34 -2 61 16 33 27 20 22 -26 -2 -16 1 -38 6 -50 9 -20 9 -20 5 3
-5 22 -4 22 13 5 17 -18 16 -19 -1 -34 -18 -14 -17 -15 6 -26 22 -10 23 -9 21
16 -1 15 -5 32 -9 38 -3 6 -7 35 -8 64 0 31 -4 45 -7 34 -6 -17 -9 -16 -25 9
-10 15 -13 25 -8 21 10 -6 22 24 35 82 5 19 3 21 -9 11 -8 -6 -14 -22 -14 -36
0 -14 -4 -21 -10 -18 -5 3 -10 -1 -10 -9 0 -9 -4 -16 -10 -16 -5 0 -10 14 -10
30 0 17 -5 30 -11 30 -8 0 -9 13 -5 40 3 22 5 40 3 40 -2 0 -9 -17 -17 -37z"/>
<path d="M3585 2330 c-3 -5 1 -10 9 -10 8 0 22 -7 30 -16 9 -8 16 -12 16 -7 0
8 -36 43 -45 43 -2 0 -7 -4 -10 -10z"/>
<path d="M2931 2315 c0 -11 4 -27 9 -35 9 -13 10 -13 9 0 0 8 -4 24 -9 35 l-9
20 0 -20z"/>
<path d="M3770 2308 c0 -29 15 -45 25 -28 3 5 -1 20 -9 32 l-16 22 0 -26z"/>
<path d="M2534 2285 c-16 -14 -24 -25 -18 -25 10 0 54 37 54 45 0 9 -7 5 -36
-20z"/>
<path d="M2401 2266 c-20 -21 -40 -32 -50 -29 -11 3 -11 1 3 -7 14 -10 20 -10
26 0 4 7 13 9 20 5 9 -5 11 -4 6 4 -10 15 13 43 27 34 5 -3 7 -1 3 5 -3 5 0
13 6 15 7 3 8 6 2 6 -5 1 -25 -14 -43 -33z"/>
<path d="M3460 2280 c-8 -5 -12 -11 -9 -14 2 -3 11 -1 19 4 8 5 12 11 9 14 -2
3 -11 1 -19 -4z"/>
<path d="M3605 2280 c3 -4 14 -10 25 -13 11 -3 18 -2 15 3 -3 4 -14 10 -25 13
-11 3 -18 2 -15 -3z"/>
<path d="M3860 2284 c0 -13 18 -39 24 -34 2 3 -2 14 -10 24 -8 11 -14 16 -14
10z"/>
<path d="M3710 2276 c0 -2 8 -10 18 -17 15 -13 16 -12 3 4 -13 16 -21 21 -21
13z"/>
<path d="M3363 2241 c1 -15 4 -17 14 -9 7 5 10 14 7 19 -10 16 -23 9 -21 -10z"/>
<path d="M2421 2228 c-14 -23 -14 -23 8 -4 22 20 25 26 13 26 -4 0 -13 -10
-21 -22z"/>
<path d="M2492 2238 c2 -6 10 -14 16 -16 7 -2 10 2 6 12 -7 18 -28 22 -22 4z"/>
<path d="M2696 2227 c10 -28 -57 -65 -76 -41 -18 21 -29 17 -36 -11 -9 -35
-21 -31 -28 10 -6 29 -9 33 -20 22 -12 -10 -12 -13 0 -15 8 -2 14 -13 14 -24
0 -19 -1 -19 -24 -4 -23 15 -25 14 -31 -5 -5 -13 -12 -18 -23 -14 -8 3 -19 1
-22 -6 -4 -6 -21 -12 -38 -13 -46 -2 -62 -23 -18 -23 19 0 33 4 30 9 -3 4 0 8
5 8 6 0 11 -6 11 -14 0 -11 5 -12 25 -3 14 7 25 14 25 17 0 6 49 5 60 0 3 -1
10 -1 15 0 46 9 225 13 435 9 19 -1 120 2 225 5 184 5 190 5 212 -16 13 -12
23 -16 23 -10 0 6 -4 14 -10 17 -5 3 -10 13 -10 22 0 14 4 13 23 -5 13 -12 27
-19 30 -15 4 3 37 7 75 8 48 1 66 5 64 15 -2 8 3 10 13 6 10 -3 14 -2 9 5 -3
6 -18 9 -33 6 -16 -3 -33 1 -44 11 -16 14 -19 14 -32 -4 -13 -18 -14 -18 -9 6
5 20 4 22 -5 10 -10 -13 -13 -13 -22 3 -14 24 -35 21 -44 -5 -6 -20 -8 -20
-12 -5 -2 9 -8 17 -13 17 -5 0 -14 -8 -19 -17 -9 -16 -10 -15 -11 8 0 14 -3
29 -7 32 -10 11 -33 -13 -33 -34 0 -11 -5 -19 -10 -19 -6 0 -9 3 -9 8 3 19 -2
33 -10 28 -5 -3 -7 -14 -4 -24 4 -16 -10 -19 -164 -30 -92 -6 -184 -8 -203 -4
-19 5 -92 7 -161 5 -105 -2 -128 0 -133 12 -3 9 0 15 9 15 8 0 15 7 15 15 0 8
5 15 10 15 6 0 10 -4 10 -9 0 -5 7 -11 15 -15 25 -9 17 9 -15 32 -16 12 -27
16 -24 9z m-184 -89 c-7 -7 -12 -8 -12 -2 0 6 3 14 7 17 3 4 9 5 12 2 2 -3 -1
-11 -7 -17z"/>
<path d="M3574 2223 c-8 -14 -7 -22 8 -37 10 -11 18 -14 18 -8 0 6 -4 13 -9
16 -5 3 -7 15 -4 26 7 25 1 26 -13 3z"/>
<path d="M3820 2229 c0 -5 5 -7 10 -4 6 3 10 8 10 11 0 2 -4 4 -10 4 -5 0 -10
-5 -10 -11z"/>
<path d="M1691 2218 c9 -7 14 -19 11 -27 -3 -8 0 -11 7 -7 17 11 13 24 -11 36
-20 9 -21 9 -7 -2z"/>
<path d="M3271 2221 c-10 -6 -10 -10 -1 -16 13 -8 24 -1 19 14 -3 6 -10 7 -18
2z"/>
<path d="M3710 2226 c0 -2 9 -6 20 -9 11 -3 20 -1 20 4 0 5 -9 9 -20 9 -11 0
-20 -2 -20 -4z"/>
<path d="M4085 2208 c-4 -16 -11 -25 -16 -22 -5 3 -9 1 -9 -5 0 -5 4 -12 8
-15 12 -7 36 39 29 56 -2 7 -8 2 -12 -14z"/>
<path d="M2450 2213 c0 -6 5 -15 10 -18 8 -5 7 -12 -2 -23 -10 -12 -10 -14 -1
-8 7 4 18 16 24 28 8 16 8 19 -1 13 -7 -4 -16 -1 -21 6 -6 9 -9 10 -9 2z"/>
<path d="M3850 2209 c0 -5 5 -7 10 -4 6 3 10 8 10 11 0 2 -4 4 -10 4 -5 0 -10
-5 -10 -11z"/>
<path d="M1660 2195 c0 -8 7 -15 15 -15 9 0 12 6 9 15 -4 8 -10 15 -15 15 -5
0 -9 -7 -9 -15z"/>
<path d="M3770 2200 c0 -5 5 -10 11 -10 5 0 7 5 4 10 -3 6 -8 10 -11 10 -2 0
-4 -4 -4 -10z"/>
<path d="M3817 2203 c-4 -3 -7 -11 -7 -17 0 -6 5 -5 12 2 6 6 9 14 7 17 -3 3
-9 2 -12 -2z"/>
<path d="M3685 2191 c-18 -5 -14 -9 22 -27 36 -18 43 -19 43 -6 0 12 3 12 15
-4 8 -10 15 -14 15 -8 0 6 -7 17 -15 24 -8 7 -15 9 -15 5 0 -4 -10 -1 -22 7
-13 8 -32 12 -43 9z"/>
<path d="M3827 2169 c-9 -10 -11 -22 -6 -30 7 -11 9 -10 9 4 0 9 6 17 14 17 7
0 19 6 26 14 9 12 8 15 -9 13 -11 -1 -27 -9 -34 -18z"/>
<path d="M3996 2159 c8 -9 12 -23 9 -31 -6 -15 22 -34 33 -23 3 3 1 5 -4 5
-13 0 -16 41 -4 55 5 6 -1 10 -20 10 -26 0 -27 -2 -14 -16z"/>
<path d="M3881 2154 c0 -11 3 -14 6 -6 3 7 2 16 -1 19 -3 4 -6 -2 -5 -13z"/>
<path d="M4040 2141 c0 -25 6 -27 13 -6 4 8 2 17 -3 20 -6 4 -10 -3 -10 -14z"/>
<path d="M3833 2110 c-28 -47 -30 -61 -4 -29 17 22 37 69 29 69 -2 0 -13 -18
-25 -40z"/>
<path d="M2215 2130 c-3 -5 -5 -35 -4 -65 2 -53 3 -54 21 -38 19 17 24 43 8
43 -17 0 -11 48 8 59 15 9 15 10 -5 11 -12 0 -25 -4 -28 -10z"/>
<path d="M4090 2130 c-9 -6 -10 -10 -3 -10 6 0 15 5 18 10 8 12 4 12 -15 0z"/>
<path d="M3786 2085 c-9 -26 -7 -32 5 -12 6 10 9 21 6 23 -2 3 -7 -2 -11 -11z"/>
<path d="M4017 2053 c-4 -3 -7 -11 -7 -17 0 -6 5 -5 12 2 6 6 9 14 7 17 -3 3
-9 2 -12 -2z"/>
<path d="M1765 1970 c5 -15 2 -20 -13 -20 -15 0 -19 -5 -15 -21 4 -16 8 -17
14 -7 5 7 9 9 9 4 0 -5 7 -3 15 4 20 16 19 46 -1 54 -12 4 -14 1 -9 -14z"/>
<path d="M1720 1970 c0 -5 5 -10 11 -10 5 0 7 5 4 10 -3 6 -8 10 -11 10 -2 0
-4 -4 -4 -10z"/>
<path d="M1817 1923 c-5 -13 -13 -23 -19 -23 -5 0 -8 7 -4 15 4 12 2 13 -14 3
-30 -19 -34 -40 -8 -36 15 2 24 -3 26 -15 4 -19 60 -76 76 -77 4 0 1 11 -7 24
-13 19 -14 26 -3 42 9 13 11 27 5 42 -10 27 -23 30 -16 3 3 -13 1 -18 -9 -14
-7 2 -14 17 -16 31 -3 26 -4 26 -11 5z m23 -64 c0 -5 -7 -9 -15 -9 -15 0 -20
12 -9 23 8 8 24 -1 24 -14z"/>
<path d="M2198 1918 c9 -11 10 -18 2 -23 -14 -9 -13 -26 2 -22 15 3 17 -35 3
-45 -7 -5 -7 -8 0 -8 16 1 59 40 51 47 -3 4 -13 -2 -21 -13 -13 -18 -14 -17
-10 13 2 23 -2 36 -18 50 -17 14 -19 14 -9 1z"/>
<path d="M2150 1916 c0 -2 7 -9 15 -16 9 -7 15 -8 15 -2 0 5 -7 12 -15 16 -8
3 -15 4 -15 2z"/>
<path d="M2139 1888 c-7 -24 -5 -38 6 -38 8 0 11 7 8 20 -5 17 -11 26 -14 18z"/>
<path d="M3985 1870 c-3 -5 1 -10 10 -10 9 0 13 5 10 10 -3 6 -8 10 -10 10 -2
0 -7 -4 -10 -10z"/>
<path d="M2290 1860 c0 -5 5 -10 10 -10 6 0 10 5 10 10 0 6 -4 10 -10 10 -5 0
-10 -4 -10 -10z"/>
<path d="M3750 1853 c0 -11 -5 -24 -11 -30 -7 -7 -7 -13 -1 -17 6 -3 15 7 20
24 7 18 7 32 1 35 -5 4 -9 -2 -9 -12z"/>
<path d="M2249 1830 l-24 -20 27 13 c16 6 28 15 28 20 0 11 -6 9 -31 -13z"/>
<path d="M1797 1811 c3 -12 9 -21 14 -21 14 0 11 16 -5 29 -12 10 -13 8 -9 -8z"/>
<path d="M2277 1789 c-9 -6 -17 -15 -17 -21 0 -9 3 -9 12 0 16 16 39 15 32 -2
-3 -8 -1 -17 4 -20 5 -3 12 4 15 15 3 12 10 18 16 15 5 -4 13 -1 17 5 5 9 0
10 -16 6 -13 -3 -29 -2 -35 3 -6 5 -17 4 -28 -1z"/>
<path d="M3880 1789 c0 -5 5 -7 10 -4 6 3 10 8 10 11 0 2 -4 4 -10 4 -5 0 -10
-5 -10 -11z"/>
<path d="M3745 1730 c4 -6 3 -16 -3 -23 -16 -21 -21 -46 -11 -52 5 -4 9 -3 8
2 -3 20 2 34 11 28 6 -4 10 7 10 24 0 17 -5 31 -11 31 -5 0 -7 -5 -4 -10z"/>
<path d="M3015 1680 c-3 -5 1 -10 10 -10 9 0 13 5 10 10 -3 6 -8 10 -10 10 -2
0 -7 -4 -10 -10z"/>
<path d="M3165 1670 c-3 -5 -1 -10 4 -10 6 0 11 5 11 10 0 6 -2 10 -4 10 -3 0
-8 -4 -11 -10z"/>
<path d="M2340 1659 c0 -5 5 -7 10 -4 6 3 10 8 10 11 0 2 -4 4 -10 4 -5 0 -10
-5 -10 -11z"/>
<path d="M2996 1644 c-9 -23 -7 -31 7 -37 10 -4 12 3 9 24 -5 33 -7 35 -16 13z"/>
<path d="M2375 1590 c-3 -6 1 -7 9 -4 18 7 21 14 7 14 -6 0 -13 -4 -16 -10z"/>
<path d="M3396 1493 c-6 -14 -5 -15 5 -6 7 7 10 15 7 18 -3 3 -9 -2 -12 -12z"/>
<path d="M2451 1484 c0 -11 3 -14 6 -6 3 7 2 16 -1 19 -3 4 -6 -2 -5 -13z"/>
<path d="M2350 1475 c-20 -24 -6 -28 15 -5 10 11 13 20 8 20 -6 0 -16 -7 -23
-15z"/>
<path d="M3470 1445 c0 -14 4 -25 9 -25 4 0 6 11 3 25 -2 14 -6 25 -8 25 -2 0
-4 -11 -4 -25z"/>
<path d="M2497 1449 c7 -7 15 -10 18 -7 3 3 -2 9 -12 12 -14 6 -15 5 -6 -5z"/>
<path d="M2561 1424 c0 -11 3 -14 6 -6 3 7 2 16 -1 19 -3 4 -6 -2 -5 -13z"/>
<path d="M3066 1427 c3 -10 9 -15 12 -12 3 3 0 11 -7 18 -10 9 -11 8 -5 -6z"/>
<path d="M3530 1419 c0 -6 5 -19 11 -30 8 -16 13 -18 24 -9 11 9 10 15 -6 31
-22 22 -29 24 -29 8z"/>
<path d="M3040 1400 c0 -11 4 -20 9 -20 5 0 7 9 4 20 -3 11 -7 20 -9 20 -2 0
-4 -9 -4 -20z"/>
<path d="M3317 1396 c3 -15 10 -29 15 -32 6 -4 7 2 3 17 -10 35 -23 45 -18 15z"/>
<path d="M3427 1403 c-4 -3 -7 -11 -7 -17 0 -6 5 -5 12 2 6 6 9 14 7 17 -3 3
-9 2 -12 -2z"/>
<path d="M3221 1384 c0 -11 3 -14 6 -6 3 7 2 16 -1 19 -3 4 -6 -2 -5 -13z"/>
<path d="M2580 1380 c0 -8 5 -22 10 -30 9 -13 10 -13 10 0 0 8 -5 22 -10 30
-9 13 -10 13 -10 0z"/>
<path d="M2970 1345 c-7 -9 -10 -18 -7 -21 3 -3 10 4 17 15 13 25 8 27 -10 6z"/>
<path d="M2517 1334 c-10 -10 -9 -52 2 -58 5 -3 11 0 13 7 7 17 -6 60 -15 51z"/>
<path d="M2730 1333 c5 -2 8 -9 4 -14 -3 -5 0 -9 6 -9 15 0 7 23 -8 26 -7 1
-8 0 -2 -3z"/>
<path d="M3480 1326 c0 -8 5 -18 10 -21 6 -3 10 1 10 9 0 8 -4 18 -10 21 -5 3
-10 -1 -10 -9z"/>
<path d="M4225 1320 c-3 -5 -1 -10 4 -10 6 0 11 5 11 10 0 6 -2 10 -4 10 -3 0
-8 -4 -11 -10z"/>
<path d="M3281 1294 c0 -11 3 -14 6 -6 3 7 2 16 -1 19 -3 4 -6 -2 -5 -13z"/>
<path d="M2670 1263 c0 -7 4 -13 9 -13 5 0 11 6 14 13 3 8 -1 14 -9 14 -8 0
-14 -6 -14 -14z"/>
<path d="M2887 1260 c-9 -11 -17 -26 -17 -33 0 -9 3 -8 9 1 4 8 12 13 17 13 5
-1 10 8 10 19 2 24 2 24 -19 0z"/>
<path d="M2955 1270 c3 -5 8 -10 11 -10 2 0 4 5 4 10 0 6 -5 10 -11 10 -5 0
-7 -4 -4 -10z"/>
<path d="M3252 1272 c-20 -7 6 -32 34 -32 14 0 25 -8 29 -20 7 -23 25 -17 25
8 0 15 -2 15 -10 2 -8 -13 -10 -12 -10 3 0 9 -4 17 -10 17 -5 0 -10 5 -10 11
0 5 5 7 12 3 7 -5 8 -3 4 5 -6 9 -12 8 -26 -4 -15 -14 -19 -14 -22 -2 -1 8 -9
12 -16 9z"/>
<path d="M2740 1243 c25 -39 40 -49 40 -29 0 9 -5 16 -11 16 -6 0 -20 10 -31
23 -17 19 -17 18 2 -10z"/>
<path d="M2790 1252 c0 -12 19 -26 26 -19 2 2 -2 10 -11 17 -9 8 -15 8 -15 2z"/>
<path d="M3236 1237 c3 -10 9 -15 12 -12 3 3 0 11 -7 18 -10 9 -11 8 -5 -6z"/>
<path d="M4255 1230 c-3 -5 -1 -10 4 -10 6 0 11 5 11 10 0 6 -2 10 -4 10 -3 0
-8 -4 -11 -10z"/>
<path d="M3210 1220 c0 -5 5 -10 10 -10 6 0 10 5 10 10 0 6 -4 10 -10 10 -5 0
-10 -4 -10 -10z"/>
<path d="M2860 1195 c-10 -12 -10 -15 4 -15 9 0 16 7 16 15 0 8 -2 15 -4 15
-2 0 -9 -7 -16 -15z"/>
<path d="M4203 1185 c0 -23 1 -24 12 -8 13 18 11 33 -4 33 -5 0 -8 -11 -8 -25z"/>
<path d="M4256 1185 c-10 -15 -16 -31 -13 -38 2 -6 11 4 20 22 21 42 16 51 -7
16z"/>
<path d="M2900 1181 c0 -6 4 -13 10 -16 6 -3 7 1 4 9 -7 18 -14 21 -14 7z"/>
<path d="M2080 1145 c7 -9 15 -13 17 -11 7 7 -7 26 -19 26 -6 0 -6 -6 2 -15z"/>
<path d="M2790 1140 c0 -5 5 -10 10 -10 6 0 10 5 10 10 0 6 -4 10 -10 10 -5 0
-10 -4 -10 -10z"/>
<path d="M4180 1130 c0 -5 5 -10 10 -10 6 0 10 5 10 10 0 6 -4 10 -10 10 -5 0
-10 -4 -10 -10z"/>
<path d="M4085 1010 c3 -5 8 -10 11 -10 2 0 4 5 4 10 0 6 -5 10 -11 10 -5 0
-7 -4 -4 -10z"/>
<path d="M4058 973 c6 -2 18 -2 25 0 6 3 1 5 -13 5 -14 0 -19 -2 -12 -5z"/>
<path d="M3960 960 c0 -5 5 -10 10 -10 6 0 10 5 10 10 0 6 -4 10 -10 10 -5 0
-10 -4 -10 -10z"/>
<path d="M4046 855 c-11 -8 -17 -17 -14 -20 2 -3 13 4 23 15 21 23 18 25 -9 5z"/>
<path d="M4103 845 c0 -23 1 -24 13 -8 17 23 17 33 0 33 -8 0 -13 -10 -13 -25z"/>
<path d="M4610 841 c0 -5 5 -13 11 -16 6 -4 24 -25 40 -47 24 -35 29 -38 29
-19 0 12 -5 31 -10 42 -12 21 -70 55 -70 40z"/>
<path d="M3845 820 c3 -5 15 -10 26 -10 10 0 19 5 19 10 0 6 -12 10 -26 10
-14 0 -23 -4 -19 -10z"/>
<path d="M1966 767 c-49 -58 -66 -93 -66 -138 0 -37 16 -38 23 -1 3 15 29 61
56 102 28 41 51 78 51 83 0 19 -22 3 -64 -46z"/>
<path d="M3704 779 c-3 -6 -15 -9 -25 -6 -16 4 -17 2 -8 -14 12 -23 16 -23 36
-4 8 8 19 13 24 10 5 -4 6 1 3 9 -7 19 -20 21 -30 5z"/>
<path d="M3970 750 c0 -5 5 -10 11 -10 5 0 7 5 4 10 -3 6 -8 10 -11 10 -2 0
-4 -4 -4 -10z"/>
<path d="M2250 716 c0 -2 7 -7 16 -10 8 -3 12 -2 9 4 -6 10 -25 14 -25 6z"/>
<path d="M2580 642 c0 -5 12 -18 27 -28 l28 -18 -16 24 c-17 26 -39 38 -39 22z"/>
<path d="M3495 640 c3 -5 13 -10 21 -10 8 0 14 5 14 10 0 6 -9 10 -21 10 -11
0 -17 -4 -14 -10z"/>
<path d="M3403 627 c-26 -11 -30 -27 -8 -27 8 0 15 5 15 10 0 6 11 10 24 10
14 0 27 3 29 8 7 11 -35 11 -60 -1z"/>
<path d="M2804 585 c11 -8 22 -12 25 -9 6 6 -19 24 -34 24 -5 -1 -1 -7 9 -15z"/>
<path d="M3190 580 c-11 -7 -4 -10 25 -9 31 0 36 2 20 9 -26 11 -28 11 -45 0z"/>
<path d="M3085 543 c-18 -14 -18 -15 -2 -9 10 3 23 6 28 6 5 0 9 5 9 10 0 14
-12 12 -35 -7z"/>
</g>
</svg>
